G04*
G04 #@! TF.GenerationSoftware,Altium Limited,Altium Designer,20.1.8 (145)*
G04*
G04 Layer_Color=32768*
%FSLAX25Y25*%
%MOIN*%
G70*
G04*
G04 #@! TF.SameCoordinates,ADFB47FA-FD8B-4379-A6DC-C8A90555AE01*
G04*
G04*
G04 #@! TF.FilePolarity,Positive*
G04*
G01*
G75*
%ADD55C,0.00200*%
G36*
X792031Y336159D02*
X783369D01*
Y338915D01*
X792031D01*
Y336159D01*
D02*
G37*
G36*
X726283Y334319D02*
Y334123D01*
X726145Y333985D01*
X725949D01*
X725811Y334123D01*
Y334319D01*
X725949Y334457D01*
X726145D01*
X726283Y334319D01*
D02*
G37*
G36*
X650986Y333923D02*
X651267Y333642D01*
X651419Y333274D01*
Y332876D01*
X651267Y332509D01*
X650986Y332227D01*
X650619Y332075D01*
X650221D01*
X649853Y332227D01*
X649758Y332322D01*
Y331214D01*
Y326056D01*
X644050D01*
Y331214D01*
Y333576D01*
X649545D01*
X649572Y333642D01*
X649853Y333923D01*
X650221Y334075D01*
X650619D01*
X650986Y333923D01*
D02*
G37*
G36*
X623393Y333882D02*
X623674Y333600D01*
X623826Y333233D01*
Y332835D01*
X623674Y332467D01*
X623393Y332186D01*
X623025Y332034D01*
X622627D01*
X622260Y332186D01*
X622165Y332281D01*
Y331172D01*
Y326015D01*
X616456D01*
Y331172D01*
Y333535D01*
X621951D01*
X621978Y333600D01*
X622260Y333882D01*
X622627Y334034D01*
X623025D01*
X623393Y333882D01*
D02*
G37*
G36*
X589375Y331900D02*
X586225D01*
Y335050D01*
X589375D01*
Y331900D01*
D02*
G37*
G36*
X687838Y330690D02*
X686263D01*
Y335710D01*
X687838D01*
Y330690D01*
D02*
G37*
G36*
X694137Y330926D02*
X694235D01*
X694373Y330788D01*
Y330690D01*
Y330592D01*
X694235Y330454D01*
X694039D01*
X693901Y330592D01*
Y330690D01*
Y330690D01*
X692562D01*
Y335710D01*
X694137D01*
Y330926D01*
D02*
G37*
G36*
X747075Y330635D02*
Y330537D01*
X751761D01*
Y328569D01*
X746839D01*
Y330301D01*
X746741D01*
X746603Y330439D01*
Y330635D01*
X746741Y330773D01*
X746937D01*
X747075Y330635D01*
D02*
G37*
G36*
X677795Y327559D02*
Y327364D01*
X677657Y327225D01*
X677461D01*
X677323Y327364D01*
Y327559D01*
X677461Y327698D01*
X677657D01*
X677795Y327559D01*
D02*
G37*
G36*
X639758Y331214D02*
Y326056D01*
X634050D01*
Y331214D01*
Y333576D01*
X639758D01*
Y331214D01*
D02*
G37*
G36*
X612165Y331172D02*
Y326015D01*
X606456D01*
Y331172D01*
Y333535D01*
X612165D01*
Y331172D01*
D02*
G37*
G36*
X713258Y325232D02*
X709281D01*
Y326256D01*
X713258D01*
Y325232D01*
D02*
G37*
G36*
X692037D02*
X688061D01*
Y326256D01*
X692037D01*
Y325232D01*
D02*
G37*
G36*
X792031Y325135D02*
X783369D01*
Y327891D01*
X792031D01*
Y325135D01*
D02*
G37*
G36*
X782424Y325233D02*
Y325037D01*
X782286Y324899D01*
X782090D01*
X781952Y325037D01*
Y325233D01*
X782090Y325371D01*
X782286D01*
X782424Y325233D01*
D02*
G37*
G36*
X723561Y326638D02*
X723714D01*
X723852Y326500D01*
Y326305D01*
X723714Y326166D01*
X723616D01*
Y324828D01*
X718596D01*
Y326402D01*
X718639D01*
Y327237D01*
X723561D01*
Y326638D01*
D02*
G37*
G36*
X803391Y323916D02*
X802209D01*
Y325884D01*
X803391D01*
Y323916D01*
D02*
G37*
G36*
X776804Y331213D02*
Y326056D01*
X771837D01*
Y322790D01*
X770262D01*
Y327810D01*
X771095D01*
Y331213D01*
Y333576D01*
X776804D01*
Y331213D01*
D02*
G37*
G36*
X766804D02*
Y326056D01*
X765538D01*
Y322790D01*
X763963D01*
Y326056D01*
X761095D01*
Y331213D01*
Y333576D01*
X766804D01*
Y331213D01*
D02*
G37*
G36*
X713258Y322673D02*
X709281D01*
Y323697D01*
X713258D01*
Y322673D01*
D02*
G37*
G36*
X692037D02*
X688061D01*
Y323697D01*
X692037D01*
Y322673D01*
D02*
G37*
G36*
X751761Y322663D02*
X746839D01*
Y324632D01*
X751761D01*
Y322663D01*
D02*
G37*
G36*
X675787Y325611D02*
Y322422D01*
X674213D01*
Y325611D01*
Y327579D01*
X675787D01*
Y325611D01*
D02*
G37*
G36*
X665787D02*
Y322422D01*
X664213D01*
Y325611D01*
Y327579D01*
X665787D01*
Y325611D01*
D02*
G37*
G36*
X589375Y321900D02*
X586225D01*
Y325050D01*
X589375D01*
Y321900D01*
D02*
G37*
G36*
X703197Y323635D02*
Y323439D01*
X703059Y323301D01*
X702961D01*
Y321568D01*
X698039D01*
Y323537D01*
X702725D01*
Y323635D01*
X702863Y323773D01*
X703059D01*
X703197Y323635D01*
D02*
G37*
G36*
X735679Y322823D02*
X735917Y322585D01*
X736046Y322274D01*
Y321938D01*
X735917Y321627D01*
X735679Y321389D01*
X735368Y321260D01*
X735032D01*
X734721Y321389D01*
X734483Y321627D01*
X734354Y321938D01*
Y322274D01*
X734483Y322585D01*
X734721Y322823D01*
X735032Y322952D01*
X735368D01*
X735679Y322823D01*
D02*
G37*
G36*
X819675Y320925D02*
X816525D01*
Y324075D01*
X819675D01*
Y320925D01*
D02*
G37*
G36*
X713258Y320114D02*
X709281D01*
Y321138D01*
X713258D01*
Y320114D01*
D02*
G37*
G36*
X692037D02*
X688061D01*
Y321138D01*
X692037D01*
Y320114D01*
D02*
G37*
G36*
X723561Y320103D02*
X723616D01*
Y319599D01*
X723659D01*
X723797Y319461D01*
Y319265D01*
X723659Y319127D01*
X723616D01*
Y318528D01*
X718596D01*
Y320103D01*
X718639D01*
Y321332D01*
X723561D01*
Y320103D01*
D02*
G37*
G36*
X644846Y319506D02*
Y318483D01*
X643153D01*
Y319506D01*
Y320687D01*
X644846D01*
Y319506D01*
D02*
G37*
G36*
X678258Y320072D02*
Y319876D01*
X678120Y319738D01*
X678022D01*
Y318399D01*
X673002D01*
Y319974D01*
X677786D01*
Y320072D01*
X677924Y320210D01*
X678120D01*
X678258Y320072D01*
D02*
G37*
G36*
X658346D02*
Y319876D01*
X658208Y319738D01*
X658110D01*
Y318399D01*
X653090D01*
Y319974D01*
X657874D01*
Y320072D01*
X658012Y320210D01*
X658208D01*
X658346Y320072D01*
D02*
G37*
G36*
X635610Y318399D02*
X630590D01*
Y319974D01*
X635610D01*
Y318399D01*
D02*
G37*
G36*
X622157Y320031D02*
Y319835D01*
X622018Y319697D01*
X621920D01*
Y318358D01*
X616901D01*
Y319933D01*
X621685D01*
Y320031D01*
X621823Y320169D01*
X622018D01*
X622157Y320031D01*
D02*
G37*
G36*
X713258Y317555D02*
X709281D01*
Y318579D01*
X713258D01*
Y317555D01*
D02*
G37*
G36*
X692037D02*
X688061D01*
Y318579D01*
X692037D01*
Y317555D01*
D02*
G37*
G36*
X702961Y315663D02*
X698039D01*
Y317632D01*
X702961D01*
Y315663D01*
D02*
G37*
G36*
X713258Y314996D02*
X709281D01*
Y316020D01*
X713258D01*
Y314996D01*
D02*
G37*
G36*
X692037D02*
X688061D01*
Y316020D01*
X692037D01*
Y314996D01*
D02*
G37*
G36*
X803391Y313916D02*
X802209D01*
Y315884D01*
X803391D01*
Y313916D01*
D02*
G37*
G36*
X713258Y312437D02*
X709281D01*
Y313461D01*
X713258D01*
Y312437D01*
D02*
G37*
G36*
X692037D02*
X688061D01*
Y313461D01*
X692037D01*
Y312437D01*
D02*
G37*
G36*
X678022Y312100D02*
X673002D01*
Y313675D01*
X678022D01*
Y312100D01*
D02*
G37*
G36*
X658110D02*
X653090D01*
Y313675D01*
X658110D01*
Y312100D01*
D02*
G37*
G36*
X621920Y312059D02*
X616901D01*
Y313634D01*
X621920D01*
Y312059D01*
D02*
G37*
G36*
X589375Y311900D02*
X586225D01*
Y315050D01*
X589375D01*
Y311900D01*
D02*
G37*
G36*
X635610Y312100D02*
X630826D01*
Y312002D01*
X630688Y311864D01*
X630492D01*
X630354Y312002D01*
Y312198D01*
X630492Y312336D01*
X630590D01*
Y313675D01*
X635610D01*
Y312100D01*
D02*
G37*
G36*
X648587Y312380D02*
Y311239D01*
X646894D01*
Y312380D01*
Y313443D01*
X648587D01*
Y312380D01*
D02*
G37*
G36*
X641107D02*
Y311239D01*
X639413D01*
Y312380D01*
Y313443D01*
X641107D01*
Y312380D01*
D02*
G37*
G36*
X649945Y311336D02*
Y311141D01*
X649806Y311002D01*
X649611D01*
X649473Y311141D01*
Y311336D01*
X649611Y311475D01*
X649806D01*
X649945Y311336D01*
D02*
G37*
G36*
X819675Y310925D02*
X816525D01*
Y314075D01*
X819675D01*
Y310925D01*
D02*
G37*
G36*
X713258Y309878D02*
X709281D01*
Y310901D01*
X713258D01*
Y309878D01*
D02*
G37*
G36*
X692037D02*
X688061D01*
Y310901D01*
X692037D01*
Y309878D01*
D02*
G37*
G36*
X723856Y310526D02*
Y310331D01*
X723718Y310192D01*
X723620D01*
Y308460D01*
X718699D01*
Y310428D01*
X723384D01*
Y310526D01*
X723522Y310664D01*
X723718D01*
X723856Y310526D01*
D02*
G37*
G36*
X713258Y307319D02*
X709281D01*
Y308343D01*
X713258D01*
Y307319D01*
D02*
G37*
G36*
X692037D02*
X688061D01*
Y308343D01*
X692037D01*
Y307319D01*
D02*
G37*
G36*
X713258Y304760D02*
X709281D01*
Y305783D01*
X713258D01*
Y304760D01*
D02*
G37*
G36*
X692037D02*
X688061D01*
Y305783D01*
X692037D01*
Y304760D01*
D02*
G37*
G36*
X803391Y303916D02*
X802209D01*
Y305884D01*
X803391D01*
Y303916D01*
D02*
G37*
G36*
X723620Y302554D02*
X718699D01*
Y304523D01*
X723620D01*
Y302554D01*
D02*
G37*
G36*
X771737Y302290D02*
X770162D01*
Y307310D01*
X771737D01*
Y302290D01*
D02*
G37*
G36*
X764099Y307408D02*
Y307310D01*
Y307310D01*
X765438D01*
Y302290D01*
X763863D01*
Y307074D01*
X763765D01*
X763627Y307212D01*
Y307310D01*
Y307408D01*
X763765Y307546D01*
X763961D01*
X764099Y307408D01*
D02*
G37*
G36*
X713258Y302201D02*
X709281D01*
Y303224D01*
X713258D01*
Y302201D01*
D02*
G37*
G36*
X692037D02*
X688061D01*
Y303224D01*
X692037D01*
Y302201D01*
D02*
G37*
G36*
X735679Y303611D02*
X735917Y303373D01*
X736046Y303062D01*
Y302726D01*
X735917Y302415D01*
X735679Y302177D01*
X735368Y302048D01*
X735032D01*
X734721Y302177D01*
X734483Y302415D01*
X734354Y302726D01*
Y303062D01*
X734483Y303373D01*
X734721Y303611D01*
X735032Y303740D01*
X735368D01*
X735679Y303611D01*
D02*
G37*
G36*
X589375Y301900D02*
X586225D01*
Y305050D01*
X589375D01*
Y301900D01*
D02*
G37*
G36*
X713493Y301531D02*
Y301336D01*
X713355Y301197D01*
X713159D01*
X713021Y301336D01*
Y301531D01*
X713159Y301669D01*
X713355D01*
X713493Y301531D01*
D02*
G37*
G36*
X819675Y300925D02*
X816525D01*
Y304075D01*
X819675D01*
Y300925D01*
D02*
G37*
G36*
X751761Y300869D02*
X746839D01*
Y302837D01*
X751761D01*
Y300869D01*
D02*
G37*
G36*
X675787Y301950D02*
Y300021D01*
X674213D01*
Y301950D01*
Y305178D01*
X675787D01*
Y301950D01*
D02*
G37*
G36*
X665787D02*
Y300021D01*
X664213D01*
Y301950D01*
Y305178D01*
X665787D01*
Y301950D01*
D02*
G37*
G36*
X751761Y295199D02*
X751859D01*
X751997Y295061D01*
Y294865D01*
X751859Y294727D01*
X751663D01*
X751525Y294865D01*
Y294963D01*
X746839D01*
Y296932D01*
X751761D01*
Y295199D01*
D02*
G37*
G36*
X766804Y295347D02*
Y293024D01*
X761309D01*
X761282Y292959D01*
X761000Y292677D01*
X760633Y292525D01*
X760235D01*
X759867Y292677D01*
X759586Y292959D01*
X759434Y293326D01*
Y293724D01*
X759586Y294092D01*
X759867Y294373D01*
X760235Y294525D01*
X760633D01*
X761000Y294373D01*
X761095Y294278D01*
Y295347D01*
Y300544D01*
X766804D01*
Y295347D01*
D02*
G37*
G36*
X803391Y293916D02*
X802209D01*
Y295884D01*
X803391D01*
Y293916D01*
D02*
G37*
G36*
X649758Y295347D02*
Y293025D01*
X644050D01*
Y295347D01*
Y300544D01*
X649758D01*
Y295347D01*
D02*
G37*
G36*
X639758D02*
Y293025D01*
X634050D01*
Y295347D01*
Y300544D01*
X639758D01*
Y295347D01*
D02*
G37*
G36*
X776804Y295347D02*
Y293024D01*
X771095D01*
Y295347D01*
Y300544D01*
X776804D01*
Y295347D01*
D02*
G37*
G36*
X622165Y295306D02*
Y292984D01*
X616456D01*
Y295306D01*
Y300503D01*
X622165D01*
Y295306D01*
D02*
G37*
G36*
X612165D02*
Y292984D01*
X606456D01*
Y295306D01*
Y300503D01*
X612165D01*
Y295306D01*
D02*
G37*
G36*
X589375Y291900D02*
X586225D01*
Y295050D01*
X589375D01*
Y291900D01*
D02*
G37*
G36*
X706473Y296459D02*
Y296361D01*
Y296263D01*
X706335Y296125D01*
X706237D01*
Y291439D01*
X704662D01*
Y296361D01*
X706001D01*
Y296361D01*
Y296459D01*
X706139Y296597D01*
X706335D01*
X706473Y296459D01*
D02*
G37*
G36*
X699938Y291439D02*
X698363D01*
Y296361D01*
X699938D01*
Y291439D01*
D02*
G37*
G36*
X688873Y295813D02*
Y295716D01*
Y295618D01*
X688735Y295479D01*
X688637D01*
Y290696D01*
X687062D01*
Y295715D01*
X688401D01*
Y295716D01*
Y295813D01*
X688539Y295952D01*
X688735D01*
X688873Y295813D01*
D02*
G37*
G36*
X682338Y290696D02*
X680763D01*
Y295715D01*
X682338D01*
Y290696D01*
D02*
G37*
G36*
X672700D02*
X671125D01*
Y295715D01*
X672700D01*
Y290696D01*
D02*
G37*
G36*
X666401D02*
X665062D01*
Y290696D01*
Y290598D01*
X664924Y290459D01*
X664728D01*
X664590Y290598D01*
Y290696D01*
Y290793D01*
X664728Y290932D01*
X664826D01*
Y295715D01*
X666401D01*
Y290696D01*
D02*
G37*
G36*
X806579Y287163D02*
Y286967D01*
X806441Y286829D01*
X806245D01*
X806107Y286967D01*
Y287163D01*
X806245Y287301D01*
X806441D01*
X806579Y287163D01*
D02*
G37*
D55*
X735162Y334221D02*
G03*
X726050Y325109I42J-9153D01*
G01*
X744353Y325098D02*
G03*
X735231Y334221I-9153J-31D01*
G01*
X735200Y290779D02*
G03*
X744353Y299933I0J9154D01*
G01*
X726047Y299902D02*
G03*
X735169Y290779I9153J31D01*
G01*
X638291Y318522D02*
X649709D01*
X638291Y313404D02*
Y318522D01*
Y313404D02*
X649709D01*
Y318522D01*
X782188Y338915D02*
X793212D01*
X782188Y325135D02*
Y338915D01*
Y325135D02*
X793212D01*
Y338915D01*
X726047Y325097D02*
X726050Y325109D01*
X735162Y334221D02*
X735231D01*
X744353Y299933D02*
Y325098D01*
X735169Y290779D02*
X735200D01*
X726047Y299902D02*
Y325097D01*
X662323Y305139D02*
X677677D01*
X662323D02*
Y322461D01*
X677677D01*
Y305139D02*
Y322461D01*
X605295Y300464D02*
X623327D01*
Y326054D01*
X605295D02*
X623327D01*
X605295Y300464D02*
Y326054D01*
X632889Y300505D02*
X650920D01*
Y326096D01*
X632889D02*
X650920D01*
X632889Y300505D02*
Y326096D01*
X759934Y326095D02*
X777965D01*
X759934Y300505D02*
Y326095D01*
Y300505D02*
X777965D01*
Y326095D01*
X686263Y330690D02*
X694137D01*
X686263D02*
Y335710D01*
X694137D01*
Y330690D02*
Y335710D01*
X680763Y295715D02*
X688637D01*
X680763Y290696D02*
Y295715D01*
Y290696D02*
X688637D01*
Y295715D01*
X664826Y290696D02*
Y295715D01*
X672700D01*
Y290696D02*
Y295715D01*
X664826Y290696D02*
X672700D01*
X630590Y312100D02*
X635610D01*
Y319974D01*
X630590D02*
X635610D01*
X630590Y312100D02*
Y319974D01*
X673002D02*
X678022D01*
X673002Y312100D02*
Y319974D01*
Y312100D02*
X678022D01*
Y319974D01*
X723616Y318528D02*
Y326402D01*
X718596Y318528D02*
X723616D01*
X718596D02*
Y326402D01*
X723616D01*
X718699Y310428D02*
X723620D01*
X718699Y302554D02*
Y310428D01*
Y302554D02*
X723620D01*
Y310428D01*
X698039Y323537D02*
X702961D01*
X698039Y315663D02*
Y323537D01*
Y315663D02*
X702961D01*
Y323537D01*
X718639Y319363D02*
X723561D01*
X718639D02*
Y327237D01*
X723561D01*
Y319363D02*
Y327237D01*
X806343Y287065D02*
Y332735D01*
X782721D02*
X806343D01*
X782721Y287065D02*
Y332735D01*
Y287065D02*
X806343D01*
X709321Y301433D02*
Y327024D01*
X691998D02*
X709321D01*
X691998Y301433D02*
Y327024D01*
Y301433D02*
X709321D01*
X746839Y330537D02*
X751761D01*
Y322663D02*
Y330537D01*
X746839Y322663D02*
X751761D01*
X746839D02*
Y330537D01*
Y294963D02*
X751761D01*
X746839D02*
Y302837D01*
X751761D01*
Y294963D02*
Y302837D01*
X621920Y312059D02*
Y319933D01*
X616901Y312059D02*
X621920D01*
X616901D02*
Y319933D01*
X621920D01*
X763863Y302290D02*
Y307310D01*
Y302290D02*
X771737D01*
Y307310D01*
X763863D02*
X771737D01*
X763963Y322790D02*
Y327810D01*
Y322790D02*
X771837D01*
Y327810D01*
X763963D02*
X771837D01*
X653090Y319974D02*
X658110D01*
X653090Y312100D02*
Y319974D01*
Y312100D02*
X658110D01*
Y319974D01*
X698363Y291439D02*
Y296361D01*
X706237D01*
Y291439D02*
Y296361D01*
X698363Y291439D02*
X706237D01*
M02*
