M48
;Layer_Color=9474304
;FILE_FORMAT=2:5
INCH,TZ
;TYPE=PLATED
T1F00S00C0.01000
T2F00S00C0.03543
T3F00S00C0.03600
T4F00S00C0.05512
%
T01
X632889Y303311
X632904Y312100
X640260Y312026
X642400Y301000
X646904Y293221
X660600Y289200
Y286800
X665239Y293225
X665000Y301000
X667600Y307100
X669800Y312100
X655600
X683500Y302712
X721159Y310428
X730300Y309300
X764000Y310600
X780300Y311000
X763950Y293221
X609212Y293082
X612300Y303300
X614500Y307300
X619600Y307200
X619391Y319519
X614500Y323800
X612200Y313500
X609400Y344400
X636904Y333576
X655581Y319561
X665000Y316200
X675300Y320000
X683700Y318067
X694568Y333631
X704600Y336500
X706600Y326300
X679200Y344300
X671200Y338600
X763963Y325300
T02
X735200Y302894
Y322106
X715000Y342900
X705000
X695000
X685000
T03
X802800Y294900
Y304900
Y314900
Y324900
T04
X818100Y302500
X587800Y303475
Y293475
Y313475
Y323475
Y333475
X818100Y322500
Y312500
M30
