G04*
G04 #@! TF.GenerationSoftware,Altium Limited,Altium Designer,20.1.8 (145)*
G04*
G04 Layer_Physical_Order=1*
G04 Layer_Color=255*
%FSLAX25Y25*%
%MOIN*%
G70*
G04*
G04 #@! TF.SameCoordinates,ADFB47FA-FD8B-4379-A6DC-C8A90555AE01*
G04*
G04*
G04 #@! TF.FilePolarity,Positive*
G04*
G01*
G75*
%ADD11C,0.01000*%
%ADD15R,0.03543X0.04720*%
%ADD16R,0.07087X0.07874*%
%ADD17R,0.04459X0.05421*%
%ADD18R,0.05315X0.05551*%
%ADD19O,0.06858X0.01433*%
%ADD20R,0.03937X0.05510*%
%ADD35C,0.04500*%
%ADD36C,0.00700*%
%ADD37C,0.02000*%
%ADD38C,0.03000*%
%ADD39C,0.07874*%
%ADD40R,0.07874X0.07874*%
%ADD41C,0.07087*%
%ADD42C,0.05906*%
%ADD43R,0.05906X0.05906*%
%ADD44C,0.06000*%
%ADD45R,0.06000X0.06000*%
%ADD46C,0.02000*%
G36*
X679834Y343516D02*
X679774Y343443D01*
X679721Y343368D01*
X679676Y343290D01*
X679637Y343209D01*
X679606Y343125D01*
X679581Y343039D01*
X679564Y342950D01*
X679554Y342858D01*
X679550Y342763D01*
X678850D01*
X678847Y342858D01*
X678836Y342950D01*
X678819Y343039D01*
X678794Y343125D01*
X678762Y343209D01*
X678724Y343290D01*
X678679Y343368D01*
X678626Y343443D01*
X678567Y343516D01*
X678500Y343586D01*
X679900D01*
X679834Y343516D01*
D02*
G37*
G36*
X814436Y346936D02*
X813800Y346300D01*
Y324236D01*
X813582Y323710D01*
X813423Y322500D01*
X813582Y321289D01*
X813800Y320764D01*
Y314236D01*
X813582Y313710D01*
X813423Y312500D01*
X813528Y311700D01*
X813101Y311200D01*
X798700D01*
X798200Y310700D01*
Y304680D01*
X779096Y285576D01*
X662357Y285576D01*
X662121Y286016D01*
X662201Y286137D01*
X662333Y286800D01*
Y289795D01*
X667755D01*
Y295078D01*
X667896Y295243D01*
X668579Y295925D01*
X668811Y296273D01*
X668892Y296683D01*
Y297970D01*
X669392Y298178D01*
X670077Y297493D01*
Y296639D01*
X670076Y296616D01*
X669771D01*
Y295917D01*
X669769Y295909D01*
X669771Y295900D01*
Y289795D01*
X675629D01*
Y296616D01*
X672531D01*
X672529Y296630D01*
X672523Y296689D01*
Y297447D01*
X672528Y297945D01*
X672984Y297945D01*
X677472D01*
Y304065D01*
X674239D01*
X674230Y304067D01*
X674222Y304065D01*
X674068D01*
X673899Y304209D01*
X673171Y304937D01*
Y319429D01*
X673671Y319478D01*
X673699Y319337D01*
X674074Y318774D01*
X674637Y318399D01*
X675300Y318267D01*
X675963Y318399D01*
X676526Y318774D01*
X676901Y319337D01*
X677033Y320000D01*
Y322867D01*
X677052Y323203D01*
X677079Y323417D01*
X677101Y323535D01*
X677472D01*
Y324236D01*
X677473Y324244D01*
X677472Y324253D01*
Y329655D01*
X672771D01*
X672528Y329655D01*
X672271Y330048D01*
Y337144D01*
X672276Y337172D01*
X672284Y337201D01*
X672295Y337229D01*
X672308Y337256D01*
X672324Y337284D01*
X672344Y337313D01*
X672357Y337328D01*
X672426Y337374D01*
X672801Y337937D01*
X672933Y338600D01*
X672801Y339263D01*
X672426Y339826D01*
X671863Y340201D01*
X671200Y340333D01*
X670537Y340201D01*
X669974Y339826D01*
X669599Y339263D01*
X669467Y338600D01*
X669599Y337937D01*
X669974Y337374D01*
X670043Y337328D01*
X670056Y337313D01*
X670076Y337284D01*
X670092Y337256D01*
X670105Y337229D01*
X670116Y337201D01*
X670124Y337172D01*
X670129Y337144D01*
Y321753D01*
X670211Y321343D01*
X670443Y320996D01*
X671029Y320410D01*
Y313924D01*
X670529Y313657D01*
X670463Y313701D01*
X669800Y313833D01*
X669137Y313701D01*
X668574Y313326D01*
X668199Y312763D01*
X668067Y312100D01*
X668199Y311437D01*
X668567Y310886D01*
X668567Y310884D01*
X668573Y310848D01*
X668576Y310806D01*
Y309048D01*
X668077Y308738D01*
X667600Y308833D01*
X666937Y308701D01*
X666374Y308326D01*
X665999Y307763D01*
X665867Y307100D01*
X665999Y306437D01*
X666374Y305874D01*
X666629Y305704D01*
X666674Y305659D01*
X666720Y305627D01*
X666731Y305618D01*
X666737Y305611D01*
X666740Y305608D01*
X666742Y305604D01*
X666745Y305599D01*
X666748Y305589D01*
X666751Y305577D01*
Y304065D01*
X662528D01*
Y302746D01*
X662427Y302738D01*
X661972D01*
X661308Y302606D01*
X660746Y302231D01*
X659374Y300859D01*
X659075Y300412D01*
X658575Y300537D01*
Y312100D01*
X658474Y312870D01*
X658177Y313588D01*
X657704Y314204D01*
X657088Y314677D01*
X656370Y314974D01*
X655600Y315075D01*
X654830Y314974D01*
X654112Y314677D01*
X653496Y314204D01*
X653023Y313588D01*
X652726Y312870D01*
X652625Y312100D01*
Y285576D01*
X629600D01*
Y300300D01*
Y309103D01*
X615571D01*
Y322344D01*
X615576Y322372D01*
X615584Y322401D01*
X615595Y322429D01*
X615608Y322456D01*
X615624Y322484D01*
X615644Y322513D01*
X615657Y322528D01*
X615726Y322574D01*
X616101Y323137D01*
X616233Y323800D01*
X616101Y324463D01*
X615726Y325026D01*
X615163Y325401D01*
X614500Y325533D01*
X613837Y325401D01*
X613274Y325026D01*
X612899Y324463D01*
X612767Y323800D01*
X612899Y323137D01*
X613274Y322574D01*
X613343Y322528D01*
X613356Y322513D01*
X613376Y322484D01*
X613392Y322456D01*
X613405Y322429D01*
X613416Y322401D01*
X613424Y322372D01*
X613429Y322344D01*
Y315324D01*
X612929Y315057D01*
X612863Y315101D01*
X612200Y315233D01*
X611537Y315101D01*
X610974Y314726D01*
X610599Y314163D01*
X610467Y313500D01*
X610599Y312837D01*
X610974Y312274D01*
X611043Y312228D01*
X611056Y312213D01*
X611076Y312184D01*
X611092Y312156D01*
X611105Y312129D01*
X611116Y312102D01*
X611124Y312072D01*
X611129Y312044D01*
Y309103D01*
X605200D01*
X603729Y346373D01*
X604075Y346734D01*
X681166Y346977D01*
X681347Y346478D01*
Y344782D01*
X680847Y344733D01*
X680801Y344963D01*
X680426Y345526D01*
X679863Y345901D01*
X679200Y346033D01*
X678537Y345901D01*
X677974Y345526D01*
X677599Y344963D01*
X677467Y344300D01*
X677599Y343637D01*
X677974Y343074D01*
X678043Y343028D01*
X678056Y343013D01*
X678076Y342984D01*
X678092Y342956D01*
X678105Y342929D01*
X678116Y342901D01*
X678124Y342872D01*
X678129Y342844D01*
Y331900D01*
X678211Y331490D01*
X678443Y331143D01*
X684458Y325128D01*
X684806Y324896D01*
X685215Y324814D01*
X685622Y324530D01*
Y324265D01*
X685583Y324148D01*
X685309Y323738D01*
X685199Y323185D01*
X685309Y322633D01*
X685583Y322223D01*
X685635Y322029D01*
Y321782D01*
X685583Y321589D01*
X685309Y321179D01*
X685199Y320626D01*
X685309Y320074D01*
X685496Y319794D01*
X685340Y319278D01*
X685285Y319254D01*
X685152Y319210D01*
X684965Y319234D01*
X684926Y319293D01*
X684363Y319669D01*
X683700Y319801D01*
X683037Y319669D01*
X682474Y319293D01*
X682099Y318731D01*
X681967Y318067D01*
X682099Y317404D01*
X682474Y316842D01*
X683037Y316466D01*
X683700Y316334D01*
X684363Y316466D01*
X684926Y316842D01*
X684965Y316900D01*
X685152Y316924D01*
X685285Y316881D01*
X685340Y316857D01*
X685496Y316341D01*
X685309Y316061D01*
X685199Y315508D01*
X685309Y314956D01*
X685583Y314546D01*
X685635Y314352D01*
Y314105D01*
X685583Y313912D01*
X685309Y313502D01*
X685199Y312949D01*
X685309Y312397D01*
X685584Y311986D01*
X685635Y311794D01*
Y311544D01*
X685584Y311353D01*
X685309Y310942D01*
X685199Y310389D01*
X685309Y309837D01*
X685583Y309427D01*
X685635Y309233D01*
Y308986D01*
X685583Y308793D01*
X685309Y308383D01*
X685199Y307830D01*
X685309Y307278D01*
X685583Y306868D01*
X685635Y306675D01*
Y306427D01*
X685583Y306234D01*
X685309Y305824D01*
X685199Y305271D01*
X685309Y304719D01*
X685574Y304322D01*
X685578Y304312D01*
X685591Y304243D01*
X685592Y304212D01*
X685364Y303783D01*
X684956D01*
X684928Y303788D01*
X684899Y303797D01*
X684871Y303807D01*
X684844Y303820D01*
X684816Y303836D01*
X684787Y303856D01*
X684772Y303869D01*
X684726Y303938D01*
X684163Y304314D01*
X683500Y304446D01*
X682837Y304314D01*
X682274Y303938D01*
X681899Y303376D01*
X681767Y302712D01*
X681899Y302049D01*
X682274Y301487D01*
X682837Y301111D01*
X683500Y300979D01*
X684163Y301111D01*
X684726Y301487D01*
X684772Y301555D01*
X684787Y301568D01*
X684816Y301589D01*
X684844Y301605D01*
X684871Y301618D01*
X684899Y301628D01*
X684928Y301636D01*
X684956Y301642D01*
X685457D01*
X685473Y301640D01*
X685540Y301631D01*
X685605Y301617D01*
X685668Y301600D01*
X685730Y301580D01*
X685791Y301555D01*
X685851Y301526D01*
X685912Y301493D01*
X685989Y301444D01*
X685995Y301442D01*
X686091Y301378D01*
X686241Y301348D01*
X686249Y301345D01*
X686256Y301345D01*
X686644Y301268D01*
X692069D01*
X692622Y301378D01*
X693090Y301691D01*
X693403Y302160D01*
X693513Y302712D01*
X693403Y303265D01*
X693129Y303675D01*
X693078Y303868D01*
Y304116D01*
X693129Y304309D01*
X693403Y304719D01*
X693513Y305271D01*
X693403Y305824D01*
X693129Y306234D01*
X693078Y306427D01*
Y306675D01*
X693129Y306868D01*
X693310Y307138D01*
X693315Y307142D01*
X693318Y307150D01*
X693403Y307278D01*
X693426Y307391D01*
X693428Y307397D01*
X693449Y307486D01*
X693468Y307552D01*
X693490Y307615D01*
X693516Y307676D01*
X693545Y307734D01*
X693578Y307791D01*
X693614Y307846D01*
X693655Y307900D01*
X693665Y307913D01*
X695491Y309739D01*
X695491Y309739D01*
X695723Y310086D01*
X695805Y310496D01*
X695805Y310496D01*
Y332271D01*
X695811Y332311D01*
X695821Y332354D01*
X695834Y332397D01*
X695850Y332440D01*
X695870Y332484D01*
X695894Y332529D01*
X695922Y332575D01*
X695966Y332640D01*
X695994Y332704D01*
X696170Y332968D01*
X696302Y333631D01*
X696170Y334295D01*
X695794Y334857D01*
X695232Y335233D01*
X694568Y335365D01*
X693905Y335233D01*
X693343Y334857D01*
X692967Y334295D01*
X692835Y333631D01*
X692967Y332968D01*
X693343Y332406D01*
X693532Y332279D01*
X693563Y332244D01*
X693611Y332208D01*
X693627Y332193D01*
X693638Y332181D01*
X693645Y332171D01*
X693650Y332161D01*
X693655Y332150D01*
X693660Y332135D01*
X693664Y332119D01*
Y326807D01*
X693164Y326655D01*
X693090Y326766D01*
X692622Y327079D01*
X692069Y327189D01*
X686644D01*
X686272Y327115D01*
X686271Y327115D01*
X686267Y327114D01*
X686238Y327108D01*
X686230D01*
X686221Y327105D01*
X686091Y327079D01*
X686009Y327024D01*
X686007Y327024D01*
X685983Y327009D01*
X685980Y327008D01*
X685971Y327005D01*
X685863Y326978D01*
X685821Y326972D01*
X685655Y326959D01*
X680271Y332343D01*
Y342844D01*
X680276Y342872D01*
X680284Y342901D01*
X680295Y342929D01*
X680308Y342956D01*
X680324Y342984D01*
X680344Y343013D01*
X680357Y343028D01*
X680426Y343074D01*
X680801Y343637D01*
X680847Y343867D01*
X681347Y343818D01*
Y339247D01*
X688653D01*
Y346501D01*
X688653Y346553D01*
X688776Y347002D01*
X694475Y347020D01*
X694509Y346520D01*
X694046Y346459D01*
X693158Y346091D01*
X692395Y345505D01*
X691809Y344742D01*
X691441Y343854D01*
X691316Y342900D01*
X691441Y341946D01*
X691809Y341058D01*
X692395Y340295D01*
X693158Y339709D01*
X694046Y339341D01*
X695000Y339216D01*
X695954Y339341D01*
X696842Y339709D01*
X697605Y340295D01*
X698191Y341058D01*
X698559Y341946D01*
X698684Y342900D01*
X698559Y343854D01*
X698191Y344742D01*
X697605Y345505D01*
X696842Y346091D01*
X695954Y346459D01*
X695468Y346523D01*
X695500Y347023D01*
X814244Y347398D01*
X814436Y346936D01*
D02*
G37*
G36*
X671834Y337816D02*
X671774Y337743D01*
X671722Y337668D01*
X671676Y337590D01*
X671637Y337509D01*
X671606Y337425D01*
X671582Y337339D01*
X671564Y337250D01*
X671554Y337158D01*
X671550Y337063D01*
X670850D01*
X670847Y337158D01*
X670836Y337250D01*
X670819Y337339D01*
X670794Y337425D01*
X670762Y337509D01*
X670724Y337590D01*
X670679Y337668D01*
X670626Y337743D01*
X670567Y337816D01*
X670500Y337886D01*
X671900D01*
X671834Y337816D01*
D02*
G37*
G36*
X695322Y332962D02*
X695272Y332880D01*
X695228Y332796D01*
X695190Y332711D01*
X695157Y332625D01*
X695131Y332537D01*
X695111Y332449D01*
X695096Y332359D01*
X695087Y332267D01*
X695084Y332175D01*
X694384Y332049D01*
X694380Y332145D01*
X694369Y332237D01*
X694349Y332324D01*
X694322Y332407D01*
X694287Y332485D01*
X694245Y332559D01*
X694194Y332629D01*
X694136Y332694D01*
X694070Y332755D01*
X693997Y332811D01*
X695377Y333043D01*
X695322Y332962D01*
D02*
G37*
G36*
X686136Y325236D02*
X686091Y325293D01*
X686037Y325344D01*
X685974Y325388D01*
X685901Y325427D01*
X685819Y325460D01*
X685727Y325487D01*
X685626Y325508D01*
X685516Y325523D01*
X685396Y325532D01*
X685267Y325535D01*
X685424Y326235D01*
X685557Y326236D01*
X685904Y326262D01*
X686003Y326278D01*
X686175Y326320D01*
X686248Y326345D01*
X686312Y326375D01*
X686369Y326408D01*
X686136Y325236D01*
D02*
G37*
G36*
X615133Y323016D02*
X615074Y322943D01*
X615022Y322868D01*
X614976Y322790D01*
X614937Y322709D01*
X614906Y322625D01*
X614882Y322539D01*
X614864Y322450D01*
X614853Y322358D01*
X614850Y322263D01*
X614150D01*
X614147Y322358D01*
X614136Y322450D01*
X614118Y322539D01*
X614094Y322625D01*
X614062Y322709D01*
X614024Y322790D01*
X613978Y322868D01*
X613926Y322943D01*
X613867Y323016D01*
X613800Y323086D01*
X615200D01*
X615133Y323016D01*
D02*
G37*
G36*
X676760Y324247D02*
X676672Y324227D01*
X676594Y324167D01*
X676525Y324067D01*
X676466Y323927D01*
X676415Y323747D01*
X676373Y323527D01*
X676341Y323267D01*
X676305Y322627D01*
X676300Y322247D01*
X674300D01*
X674290Y322629D01*
X674260Y322970D01*
X674210Y323272D01*
X674140Y323533D01*
X674050Y323754D01*
X673940Y323935D01*
X673810Y324077D01*
X673660Y324177D01*
X673490Y324238D01*
X673300Y324259D01*
X676760Y324247D01*
D02*
G37*
G36*
X829800Y311425D02*
X829338Y311234D01*
X826614Y313958D01*
X825997Y314431D01*
X825280Y314728D01*
X824510Y314830D01*
X823569D01*
X822930Y314874D01*
X822649Y314913D01*
X822405Y314962D01*
X822208Y315017D01*
X822062Y315074D01*
X821968Y315125D01*
X821923Y315159D01*
X821860Y315230D01*
X821778Y315293D01*
X821703Y315363D01*
X821668Y315376D01*
X821639Y315399D01*
X821539Y315425D01*
X821443Y315462D01*
X821405Y315460D01*
X821370Y315470D01*
X821267Y315456D01*
X821164Y315453D01*
X821130Y315438D01*
X821094Y315433D01*
X821004Y315381D01*
X820910Y315338D01*
X820885Y315311D01*
X820853Y315293D01*
X820790Y315210D01*
X820720Y315135D01*
X820707Y315100D01*
X820684Y315071D01*
X820658Y314971D01*
X820621Y314875D01*
X820614Y314830D01*
X819909D01*
X819588Y315077D01*
X818870Y315374D01*
X818100Y315476D01*
X817330Y315374D01*
X816612Y315077D01*
X815996Y314604D01*
X815523Y313988D01*
X815226Y313270D01*
X815125Y312500D01*
X815226Y311730D01*
X815523Y311012D01*
X815996Y310396D01*
X816642Y309751D01*
X817258Y309278D01*
X817976Y308980D01*
X818746Y308879D01*
X819869D01*
X819914Y308837D01*
X819978Y308761D01*
X820014Y308743D01*
X820044Y308715D01*
X820137Y308680D01*
X820226Y308634D01*
X820266Y308631D01*
X820305Y308616D01*
X820404Y308619D01*
X820503Y308611D01*
X820542Y308624D01*
X820583Y308625D01*
X820674Y308666D01*
X820768Y308697D01*
X820814Y308722D01*
X820859Y308738D01*
X820975Y308766D01*
X821124Y308792D01*
X822560Y308879D01*
X823277D01*
X824924Y307231D01*
Y295832D01*
X820267Y291176D01*
X810732D01*
X809121Y292787D01*
X808893Y293025D01*
X808377Y293621D01*
X807925Y294205D01*
X807538Y294776D01*
X807214Y295332D01*
X806953Y295873D01*
X806754Y296399D01*
X806613Y296909D01*
X806530Y297405D01*
X806501Y297928D01*
X806471Y298044D01*
X806447Y298161D01*
X806436Y298178D01*
X806431Y298198D01*
X806359Y298293D01*
X806293Y298393D01*
X806276Y298404D01*
X806263Y298420D01*
X806161Y298481D01*
X806061Y298547D01*
X806041Y298551D01*
X806024Y298562D01*
X805905Y298578D01*
X805788Y298602D01*
X805768Y298598D01*
X805748Y298601D01*
X805632Y298571D01*
X805515Y298547D01*
X805498Y298536D01*
X805478Y298531D01*
X805383Y298459D01*
X805283Y298393D01*
X804733Y297842D01*
X804688Y297877D01*
X803970Y298174D01*
X803200Y298275D01*
X802430Y298174D01*
X801712Y297877D01*
X801096Y297404D01*
X800696Y297004D01*
X800223Y296388D01*
X799926Y295670D01*
X799824Y294900D01*
X799926Y294130D01*
X800223Y293412D01*
X800258Y293367D01*
X799307Y292417D01*
X799241Y292317D01*
X799169Y292222D01*
X799164Y292202D01*
X799153Y292185D01*
X799129Y292068D01*
X799099Y291952D01*
X799102Y291932D01*
X799098Y291912D01*
X799122Y291795D01*
X799138Y291676D01*
X799149Y291659D01*
X799153Y291639D01*
X799219Y291540D01*
X799280Y291437D01*
X799296Y291424D01*
X799307Y291407D01*
X799407Y291341D01*
X799502Y291269D01*
X799522Y291264D01*
X799539Y291253D01*
X799656Y291229D01*
X799772Y291199D01*
X800295Y291170D01*
X800791Y291087D01*
X801301Y290947D01*
X801827Y290747D01*
X802368Y290486D01*
X802924Y290162D01*
X803486Y289780D01*
X804682Y288800D01*
X804913Y288579D01*
X807396Y286096D01*
X808012Y285623D01*
X808730Y285326D01*
X809500Y285225D01*
X821500D01*
X822270Y285326D01*
X822988Y285623D01*
X823604Y286096D01*
X828971Y291463D01*
X829395Y291199D01*
X828966Y289933D01*
X827869Y287710D01*
X826492Y285649D01*
X824858Y283785D01*
X824419Y283400D01*
X798400D01*
Y296464D01*
X802917Y300981D01*
X803502Y300396D01*
X804118Y299923D01*
X804836Y299626D01*
X805606Y299524D01*
X810268D01*
X810499Y299520D01*
X811228Y299472D01*
X811856Y299394D01*
X812381Y299289D01*
X812797Y299162D01*
X813101Y299024D01*
X813295Y298890D01*
X813394Y298779D01*
X813439Y298686D01*
X813463Y298513D01*
Y297863D01*
X814166D01*
X814175Y297861D01*
X814184Y297863D01*
X822737D01*
Y307137D01*
X814184D01*
X814175Y307139D01*
X814166Y307137D01*
X813463D01*
Y306487D01*
X813439Y306314D01*
X813394Y306221D01*
X813295Y306110D01*
X813101Y305976D01*
X812797Y305838D01*
X812381Y305711D01*
X811866Y305608D01*
X810490Y305480D01*
X810268Y305475D01*
X806838D01*
X806374Y305940D01*
X806032Y306766D01*
X805439Y307539D01*
X804666Y308132D01*
X803766Y308505D01*
X802800Y308632D01*
X801834Y308505D01*
X800934Y308132D01*
X800161Y307539D01*
X799568Y306766D01*
X799414Y306393D01*
X798914Y306493D01*
Y309476D01*
X813676D01*
X813700Y309500D01*
X813719Y310824D01*
X814071Y311236D01*
X814080Y311253D01*
X814095Y311265D01*
X814148Y311374D01*
X814207Y311479D01*
X814209Y311498D01*
X814218Y311515D01*
X814226Y311636D01*
X814240Y311755D01*
X814235Y311774D01*
X814236Y311793D01*
X814143Y312500D01*
X814278Y313524D01*
X814459Y313963D01*
X814514Y314236D01*
Y318777D01*
X815014Y319023D01*
X815761Y318450D01*
X816889Y317982D01*
X818100Y317823D01*
X819310Y317982D01*
X820438Y318450D01*
X821407Y319193D01*
X822150Y320162D01*
X822618Y321289D01*
X822777Y322500D01*
X822618Y323710D01*
X822150Y324838D01*
X821407Y325807D01*
X820438Y326550D01*
X819310Y327018D01*
X818100Y327177D01*
X816889Y327018D01*
X815761Y326550D01*
X815014Y325977D01*
X814514Y326223D01*
Y330900D01*
X829800D01*
Y311425D01*
D02*
G37*
G36*
X686369Y317404D02*
X686274Y317463D01*
X686177Y317517D01*
X686078Y317564D01*
X685977Y317604D01*
X685874Y317639D01*
X685770Y317667D01*
X685663Y317689D01*
X685554Y317705D01*
X685443Y317714D01*
X685330Y317717D01*
Y318417D01*
X685443Y318420D01*
X685554Y318430D01*
X685663Y318445D01*
X685770Y318467D01*
X685874Y318496D01*
X685977Y318530D01*
X686078Y318571D01*
X686177Y318618D01*
X686274Y318671D01*
X686369Y318731D01*
Y317404D01*
D02*
G37*
G36*
X684484Y318701D02*
X684557Y318641D01*
X684632Y318589D01*
X684710Y318543D01*
X684791Y318505D01*
X684875Y318473D01*
X684961Y318449D01*
X685050Y318431D01*
X685142Y318421D01*
X685237Y318417D01*
Y317717D01*
X685142Y317714D01*
X685050Y317703D01*
X684961Y317686D01*
X684875Y317661D01*
X684791Y317630D01*
X684710Y317591D01*
X684632Y317546D01*
X684557Y317493D01*
X684484Y317434D01*
X684414Y317367D01*
Y318767D01*
X684484Y318701D01*
D02*
G37*
G36*
X612833Y312716D02*
X612774Y312643D01*
X612721Y312568D01*
X612676Y312490D01*
X612638Y312409D01*
X612606Y312325D01*
X612581Y312239D01*
X612564Y312150D01*
X612554Y312058D01*
X612550Y311963D01*
X611850D01*
X611846Y312058D01*
X611836Y312150D01*
X611819Y312239D01*
X611794Y312325D01*
X611763Y312409D01*
X611724Y312490D01*
X611679Y312568D01*
X611626Y312643D01*
X611566Y312716D01*
X611500Y312786D01*
X612900D01*
X612833Y312716D01*
D02*
G37*
G36*
X670462Y311343D02*
X670428Y311293D01*
X670398Y311236D01*
X670372Y311172D01*
X670350Y311100D01*
X670332Y311021D01*
X670318Y310935D01*
X670308Y310842D01*
X670300Y310634D01*
X669300D01*
X669298Y310742D01*
X669282Y310935D01*
X669268Y311021D01*
X669250Y311100D01*
X669228Y311172D01*
X669202Y311236D01*
X669172Y311293D01*
X669138Y311343D01*
X669100Y311386D01*
X670500D01*
X670462Y311343D01*
D02*
G37*
G36*
X821435Y314633D02*
X821581Y314522D01*
X821763Y314424D01*
X821982Y314340D01*
X822237Y314268D01*
X822528Y314209D01*
X822856Y314163D01*
X823621Y314111D01*
X824057Y314104D01*
X823130Y309604D01*
X822685Y309602D01*
X821042Y309502D01*
X820829Y309465D01*
X820654Y309423D01*
X820519Y309374D01*
X820422Y309320D01*
X821325Y314758D01*
X821435Y314633D01*
D02*
G37*
G36*
X693245Y308512D02*
X693167Y308430D01*
X693096Y308345D01*
X693030Y308257D01*
X692970Y308165D01*
X692916Y308071D01*
X692867Y307974D01*
X692825Y307874D01*
X692788Y307771D01*
X692757Y307665D01*
X692732Y307555D01*
X691797Y308537D01*
X691849Y308497D01*
X691911Y308476D01*
X691982Y308475D01*
X692063Y308493D01*
X692153Y308530D01*
X692253Y308587D01*
X692363Y308663D01*
X692483Y308758D01*
X692612Y308873D01*
X692750Y309007D01*
X693245Y308512D01*
D02*
G37*
G36*
X614853Y308742D02*
X614864Y308650D01*
X614882Y308561D01*
X614906Y308475D01*
X614937Y308391D01*
X614976Y308310D01*
X615022Y308232D01*
X615074Y308157D01*
X615133Y308084D01*
X615200Y308014D01*
X613800D01*
X613867Y308084D01*
X613926Y308157D01*
X613978Y308232D01*
X614024Y308310D01*
X614062Y308391D01*
X614094Y308475D01*
X614118Y308561D01*
X614136Y308650D01*
X614147Y308742D01*
X614150Y308837D01*
X614850D01*
X614853Y308742D01*
D02*
G37*
G36*
X620233Y306416D02*
X620174Y306343D01*
X620121Y306268D01*
X620076Y306190D01*
X620038Y306109D01*
X620006Y306025D01*
X619981Y305939D01*
X619964Y305850D01*
X619953Y305758D01*
X619950Y305663D01*
X619250D01*
X619246Y305758D01*
X619236Y305850D01*
X619218Y305939D01*
X619194Y306025D01*
X619163Y306109D01*
X619124Y306190D01*
X619078Y306268D01*
X619026Y306343D01*
X618966Y306416D01*
X618900Y306486D01*
X620300D01*
X620233Y306416D01*
D02*
G37*
G36*
X668390Y306475D02*
X668304Y306304D01*
X668269Y306217D01*
X668239Y306130D01*
X668215Y306042D01*
X668196Y305952D01*
X668182Y305862D01*
X668174Y305771D01*
X668172Y305679D01*
X667472Y305508D01*
X667468Y305605D01*
X667456Y305697D01*
X667436Y305783D01*
X667408Y305865D01*
X667373Y305942D01*
X667329Y306013D01*
X667278Y306080D01*
X667218Y306141D01*
X667151Y306197D01*
X667076Y306248D01*
X668441Y306559D01*
X668390Y306475D01*
D02*
G37*
G36*
X612554Y304773D02*
X612565Y304681D01*
X612584Y304593D01*
X612610Y304508D01*
X612644Y304428D01*
X612685Y304351D01*
X612734Y304278D01*
X612790Y304208D01*
X612854Y304142D01*
X612925Y304081D01*
X611532Y303941D01*
X611592Y304018D01*
X611647Y304097D01*
X611694Y304177D01*
X611735Y304260D01*
X611770Y304344D01*
X611799Y304430D01*
X611821Y304518D01*
X611837Y304608D01*
X611847Y304700D01*
X611850Y304793D01*
X612550Y304868D01*
X612554Y304773D01*
D02*
G37*
G36*
X673384Y303709D02*
X673641Y303492D01*
X673755Y303412D01*
X673859Y303353D01*
X673953Y303313D01*
X674037Y303294D01*
X674112D01*
X674176Y303313D01*
X674230Y303353D01*
X673240Y302363D01*
X673280Y302417D01*
X673300Y302482D01*
Y302556D01*
X673280Y302640D01*
X673240Y302734D01*
X673181Y302838D01*
X673102Y302952D01*
X673003Y303076D01*
X672745Y303353D01*
X673240Y303848D01*
X673384Y303709D01*
D02*
G37*
G36*
X686369Y302049D02*
X686274Y302108D01*
X686177Y302162D01*
X686078Y302209D01*
X685977Y302249D01*
X685874Y302284D01*
X685770Y302312D01*
X685663Y302334D01*
X685554Y302350D01*
X685443Y302359D01*
X685330Y302362D01*
Y303062D01*
X685443Y303065D01*
X685554Y303075D01*
X685663Y303091D01*
X685770Y303113D01*
X685874Y303141D01*
X685977Y303175D01*
X686078Y303216D01*
X686177Y303263D01*
X686274Y303316D01*
X686369Y303376D01*
Y302049D01*
D02*
G37*
G36*
X684284Y303346D02*
X684357Y303286D01*
X684432Y303234D01*
X684510Y303188D01*
X684591Y303150D01*
X684675Y303118D01*
X684761Y303094D01*
X684850Y303076D01*
X684942Y303066D01*
X685037Y303062D01*
Y302362D01*
X684942Y302359D01*
X684850Y302348D01*
X684761Y302331D01*
X684675Y302306D01*
X684591Y302275D01*
X684510Y302236D01*
X684432Y302191D01*
X684357Y302138D01*
X684284Y302079D01*
X684214Y302012D01*
Y303412D01*
X684284Y303346D01*
D02*
G37*
G36*
X663240Y299736D02*
X663228Y299787D01*
X663190Y299833D01*
X663126Y299873D01*
X663037Y299908D01*
X662923Y299938D01*
X662784Y299962D01*
X662619Y299981D01*
X662213Y300002D01*
X661972Y300005D01*
Y302005D01*
X662213Y302008D01*
X662784Y302048D01*
X662923Y302072D01*
X663037Y302102D01*
X663126Y302137D01*
X663190Y302177D01*
X663228Y302223D01*
X663240Y302274D01*
Y299736D01*
D02*
G37*
G36*
X814175Y298575D02*
X814130Y298893D01*
X813995Y299178D01*
X813770Y299429D01*
X813455Y299647D01*
X813050Y299831D01*
X812555Y299982D01*
X811970Y300099D01*
X811295Y300183D01*
X810530Y300233D01*
X809675Y300250D01*
Y304750D01*
X810530Y304767D01*
X811970Y304901D01*
X812555Y305018D01*
X813050Y305169D01*
X813455Y305353D01*
X813770Y305571D01*
X813995Y305822D01*
X814130Y306107D01*
X814175Y306425D01*
Y298575D01*
D02*
G37*
G36*
X619953Y297672D02*
X619964Y297553D01*
X619981Y297448D01*
X620006Y297357D01*
X620038Y297280D01*
X620076Y297217D01*
X620121Y297168D01*
X620174Y297133D01*
X620233Y297112D01*
X620300Y297105D01*
X618900D01*
X618966Y297112D01*
X619026Y297133D01*
X619078Y297168D01*
X619124Y297217D01*
X619163Y297280D01*
X619194Y297357D01*
X619218Y297448D01*
X619236Y297553D01*
X619246Y297672D01*
X619250Y297805D01*
X619950D01*
X619953Y297672D01*
D02*
G37*
G36*
X671805Y296713D02*
X671820Y296541D01*
X671845Y296390D01*
X671880Y296258D01*
X671925Y296147D01*
X671980Y296056D01*
X672045Y295985D01*
X672120Y295934D01*
X672205Y295903D01*
X672300Y295892D01*
X670483Y295904D01*
X670543Y295914D01*
X670597Y295944D01*
X670645Y295994D01*
X670686Y296064D01*
X670721Y296154D01*
X670749Y296264D01*
X670771Y296394D01*
X670787Y296544D01*
X670800Y296904D01*
X671800D01*
X671805Y296713D01*
D02*
G37*
G36*
X667538Y295904D02*
X667399Y295760D01*
X667178Y295501D01*
X667098Y295387D01*
X667037Y295283D01*
X666997Y295189D01*
X666976Y295105D01*
X666974Y295031D01*
X666993Y294968D01*
X667031Y294914D01*
X666053Y295892D01*
X666107Y295854D01*
X666170Y295835D01*
X666244Y295836D01*
X666328Y295858D01*
X666422Y295898D01*
X666526Y295959D01*
X666640Y296039D01*
X666764Y296139D01*
X667043Y296399D01*
X667538Y295904D01*
D02*
G37*
G36*
X666086Y294447D02*
X666030Y294374D01*
X665986Y294303D01*
X665954Y294234D01*
X665934Y294167D01*
X665927Y294100D01*
X665931Y294036D01*
X665948Y293973D01*
X665977Y293912D01*
X666019Y293852D01*
X664709Y294073D01*
X664718Y294080D01*
X664734Y294095D01*
X665154Y294510D01*
X666155Y294520D01*
X666086Y294447D01*
D02*
G37*
G36*
X805820Y297325D02*
X805915Y296755D01*
X806074Y296177D01*
X806297Y295591D01*
X806583Y294997D01*
X806933Y294395D01*
X807347Y293786D01*
X807825Y293169D01*
X808365Y292545D01*
X808970Y291912D01*
X805788Y288730D01*
X805155Y289335D01*
X803914Y290353D01*
X803304Y290767D01*
X802703Y291116D01*
X802109Y291403D01*
X801523Y291626D01*
X800945Y291785D01*
X800375Y291880D01*
X799812Y291912D01*
X805788Y297888D01*
X805820Y297325D01*
D02*
G37*
G36*
X591470Y295564D02*
X591343Y295150D01*
Y294673D01*
X591470Y294132D01*
X591725Y293527D01*
X592107Y292859D01*
X592616Y292127D01*
X593252Y291332D01*
X594907Y289550D01*
X591725Y286368D01*
X590802Y287259D01*
X589148Y288659D01*
X588416Y289168D01*
X587747Y289550D01*
X587143Y289804D01*
X586602Y289932D01*
X586125D01*
X585711Y289804D01*
X585361Y289550D01*
X591725Y295914D01*
X591470Y295564D01*
D02*
G37*
G36*
X661932Y284850D02*
X661000Y280350D01*
X656500D01*
Y282600D01*
X657191Y285091D01*
X661932Y284850D01*
D02*
G37*
%LPC*%
G36*
X715000Y346584D02*
X714046Y346459D01*
X713158Y346091D01*
X712395Y345505D01*
X711809Y344742D01*
X711441Y343854D01*
X711316Y342900D01*
X711441Y341946D01*
X711809Y341058D01*
X712395Y340295D01*
X713158Y339709D01*
X714046Y339341D01*
X715000Y339216D01*
X715954Y339341D01*
X716842Y339709D01*
X717605Y340295D01*
X718191Y341058D01*
X718559Y341946D01*
X718684Y342900D01*
X718559Y343854D01*
X718191Y344742D01*
X717605Y345505D01*
X716842Y346091D01*
X715954Y346459D01*
X715000Y346584D01*
D02*
G37*
G36*
X641147Y338016D02*
X632660D01*
Y328742D01*
X641147D01*
Y338016D01*
D02*
G37*
G36*
X609400Y346133D02*
X608737Y346001D01*
X608174Y345626D01*
X607799Y345063D01*
X607667Y344400D01*
X607799Y343737D01*
X608174Y343174D01*
X608243Y343128D01*
X608256Y343113D01*
X608276Y343084D01*
X608292Y343056D01*
X608305Y343029D01*
X608316Y343002D01*
X608324Y342972D01*
X608329Y342944D01*
Y337975D01*
X605067D01*
Y328701D01*
X613553D01*
Y337975D01*
X610471D01*
Y342944D01*
X610476Y342972D01*
X610484Y343001D01*
X610495Y343029D01*
X610508Y343056D01*
X610524Y343084D01*
X610544Y343113D01*
X610557Y343128D01*
X610626Y343174D01*
X611001Y343737D01*
X611133Y344400D01*
X611001Y345063D01*
X610626Y345626D01*
X610063Y346001D01*
X609400Y346133D01*
D02*
G37*
G36*
X802800Y328632D02*
X801834Y328505D01*
X800934Y328132D01*
X800161Y327539D01*
X799568Y326766D01*
X799195Y325866D01*
X799068Y324900D01*
X799195Y323934D01*
X799568Y323034D01*
X800161Y322261D01*
X800934Y321668D01*
X801834Y321295D01*
X802800Y321168D01*
X803766Y321295D01*
X804666Y321668D01*
X805439Y322261D01*
X806032Y323034D01*
X806405Y323934D01*
X806532Y324900D01*
X806405Y325866D01*
X806032Y326766D01*
X805439Y327539D01*
X804666Y328132D01*
X803766Y328505D01*
X802800Y328632D01*
D02*
G37*
G36*
X704600Y338233D02*
X703937Y338101D01*
X703374Y337726D01*
X702999Y337163D01*
X702867Y336500D01*
X702999Y335837D01*
X703374Y335274D01*
X703407Y335253D01*
X703421Y335231D01*
X703439Y335198D01*
X703453Y335166D01*
X703465Y335134D01*
X703473Y335100D01*
X703479Y335068D01*
Y315089D01*
X703561Y314679D01*
X703793Y314332D01*
X707653Y310472D01*
X707664Y310459D01*
X707704Y310405D01*
X707741Y310350D01*
X707773Y310293D01*
X707802Y310234D01*
X707828Y310174D01*
X707851Y310111D01*
X707870Y310045D01*
X707890Y309956D01*
X707893Y309950D01*
X707915Y309837D01*
X708001Y309709D01*
X708004Y309701D01*
X708009Y309697D01*
X708189Y309427D01*
X708241Y309233D01*
Y308986D01*
X708189Y308793D01*
X707915Y308383D01*
X707805Y307830D01*
X707915Y307278D01*
X708189Y306868D01*
X708241Y306675D01*
Y306427D01*
X708189Y306234D01*
X707915Y305824D01*
X707805Y305271D01*
X707915Y304719D01*
X708189Y304309D01*
X708241Y304116D01*
Y303868D01*
X708189Y303675D01*
X707915Y303265D01*
X707805Y302712D01*
X707915Y302160D01*
X708228Y301691D01*
X708697Y301378D01*
X709250Y301268D01*
X710892D01*
Y300657D01*
X707760Y297526D01*
X707648Y297422D01*
X707565Y297355D01*
X707410D01*
X707402Y297357D01*
X707393Y297355D01*
X703766D01*
Y290445D01*
X709103D01*
Y295644D01*
X709105Y295653D01*
X709103Y295662D01*
Y295815D01*
X709247Y295985D01*
X712719Y299457D01*
X712951Y299804D01*
X713033Y300214D01*
Y301268D01*
X714675D01*
X715228Y301378D01*
X715696Y301691D01*
X716009Y302160D01*
X716119Y302712D01*
X716009Y303265D01*
X715744Y303662D01*
X715741Y303672D01*
X715728Y303741D01*
X715727Y303771D01*
X715954Y304201D01*
X726271D01*
X726681Y304282D01*
X727028Y304514D01*
X730027Y307513D01*
X730051Y307529D01*
X730078Y307544D01*
X730105Y307556D01*
X730133Y307566D01*
X730164Y307575D01*
X730199Y307581D01*
X730219Y307583D01*
X730300Y307567D01*
X730963Y307699D01*
X731526Y308074D01*
X731901Y308637D01*
X731917Y308715D01*
X732459Y308879D01*
X733805Y307534D01*
X733826Y307343D01*
X733772Y306994D01*
X733724Y306917D01*
X733642Y306867D01*
X733469Y306783D01*
X733432Y306755D01*
X733060Y306600D01*
X732174Y305920D01*
X731494Y305034D01*
X731066Y304002D01*
X730920Y302894D01*
X731066Y301786D01*
X731494Y300754D01*
X732174Y299868D01*
X733060Y299187D01*
X734092Y298760D01*
X735200Y298614D01*
X736308Y298760D01*
X737340Y299187D01*
X738226Y299868D01*
X738333Y300007D01*
X738633Y300305D01*
X738998Y300647D01*
X739672Y301215D01*
X739956Y301421D01*
X740216Y301586D01*
X740441Y301706D01*
X740625Y301781D01*
X740763Y301818D01*
X740817Y301823D01*
X745942D01*
Y299361D01*
X752658D01*
Y306313D01*
X745942D01*
Y303965D01*
X740817D01*
X740763Y303970D01*
X740625Y304007D01*
X740441Y304082D01*
X740216Y304202D01*
X739957Y304367D01*
X739678Y304569D01*
X738625Y305492D01*
X738331Y305784D01*
X738226Y305920D01*
X737340Y306600D01*
X736968Y306755D01*
X736931Y306783D01*
X736758Y306867D01*
X736636Y306941D01*
X736539Y307016D01*
X736462Y307090D01*
X736401Y307165D01*
X736354Y307242D01*
X736317Y307325D01*
X736289Y307419D01*
X736271Y307527D01*
X736271Y307541D01*
Y307653D01*
X736271Y307653D01*
X736189Y308062D01*
X735957Y308410D01*
X730660Y313706D01*
X730313Y313938D01*
X729903Y314020D01*
X729065D01*
X729012Y314519D01*
X729359Y314751D01*
X731985Y317377D01*
X732027Y317411D01*
X732151Y317483D01*
X732334Y317560D01*
X732578Y317634D01*
X732878Y317701D01*
X733218Y317755D01*
X734615Y317847D01*
X735030Y317848D01*
X735200Y317826D01*
X736308Y317972D01*
X737340Y318400D01*
X738226Y319080D01*
X738331Y319216D01*
X738634Y319517D01*
X738998Y319859D01*
X739672Y320427D01*
X739957Y320633D01*
X740216Y320798D01*
X740441Y320918D01*
X740625Y320993D01*
X740763Y321030D01*
X740817Y321035D01*
X745942D01*
Y319187D01*
X752658D01*
Y326139D01*
X745942D01*
Y323177D01*
X740817D01*
X740763Y323182D01*
X740625Y323219D01*
X740441Y323294D01*
X740216Y323414D01*
X739956Y323579D01*
X739678Y323781D01*
X738624Y324704D01*
X738333Y324993D01*
X738226Y325132D01*
X737340Y325813D01*
X736308Y326240D01*
X735200Y326386D01*
X734092Y326240D01*
X733060Y325813D01*
X732174Y325132D01*
X731494Y324246D01*
X731066Y323214D01*
X730920Y322106D01*
X730943Y321934D01*
X730941Y321509D01*
X730926Y321009D01*
X730850Y320131D01*
X730795Y319784D01*
X730728Y319484D01*
X730654Y319240D01*
X730577Y319057D01*
X730506Y318933D01*
X730471Y318891D01*
X728159Y316579D01*
X720266D01*
X720214Y317078D01*
X720561Y317310D01*
X721857Y318606D01*
X722089Y318953D01*
X722171Y319363D01*
X722089Y319773D01*
X721857Y320120D01*
X721510Y320352D01*
X721100Y320434D01*
X720690Y320352D01*
X720343Y320120D01*
X719513Y319290D01*
X719269Y319253D01*
X718971Y319272D01*
X718887Y319329D01*
X718808Y319394D01*
X718772Y319405D01*
X718740Y319427D01*
X718640Y319447D01*
X718542Y319477D01*
X718504Y319474D01*
X718467Y319481D01*
X718367Y319461D01*
X718265Y319452D01*
X718231Y319434D01*
X718193Y319427D01*
X718109Y319370D01*
X718018Y319323D01*
X717994Y319293D01*
X717962Y319272D01*
X717905Y319187D01*
X717864Y319138D01*
X715954D01*
X715727Y319567D01*
X715728Y319598D01*
X715741Y319667D01*
X715744Y319677D01*
X715916Y319934D01*
X715920Y319938D01*
X715924Y319946D01*
X716009Y320074D01*
X716032Y320187D01*
X716034Y320193D01*
X716055Y320282D01*
X716074Y320348D01*
X716096Y320411D01*
X716122Y320472D01*
X716151Y320530D01*
X716184Y320587D01*
X716220Y320642D01*
X716261Y320696D01*
X716271Y320709D01*
X719155Y323592D01*
X719263Y323693D01*
X719347Y323760D01*
X719349Y323761D01*
X724458D01*
Y330713D01*
X717742D01*
Y325232D01*
X717606Y325072D01*
X716446Y323911D01*
X715831Y324004D01*
X715735Y324148D01*
X715684Y324341D01*
Y324588D01*
X715735Y324782D01*
X716009Y325192D01*
X716119Y325744D01*
X716009Y326297D01*
X715696Y326766D01*
X715228Y327079D01*
X714675Y327189D01*
X709250D01*
X708697Y327079D01*
X708655Y327051D01*
X708023Y327230D01*
X707826Y327526D01*
X707263Y327901D01*
X706600Y328033D01*
X706121Y327938D01*
X705621Y328246D01*
Y335023D01*
X705626Y335048D01*
X705633Y335073D01*
X705642Y335096D01*
X705653Y335117D01*
X705667Y335140D01*
X705685Y335164D01*
X705708Y335190D01*
X705730Y335211D01*
X705826Y335274D01*
X706201Y335837D01*
X706333Y336500D01*
X706201Y337163D01*
X705826Y337726D01*
X705263Y338101D01*
X704600Y338233D01*
D02*
G37*
G36*
X651147Y338016D02*
X642660D01*
Y328742D01*
X649608D01*
X649773Y328602D01*
X654510Y323865D01*
Y321017D01*
X654504Y320988D01*
X654496Y320959D01*
X654486Y320932D01*
X654473Y320904D01*
X654457Y320877D01*
X654436Y320848D01*
X654424Y320832D01*
X654355Y320786D01*
X653979Y320224D01*
X653847Y319561D01*
X653979Y318897D01*
X654355Y318335D01*
X654917Y317959D01*
X655581Y317827D01*
X656244Y317959D01*
X656806Y318335D01*
X657182Y318897D01*
X657314Y319561D01*
X657182Y320224D01*
X656806Y320786D01*
X656737Y320832D01*
X656725Y320848D01*
X656704Y320877D01*
X656688Y320904D01*
X656675Y320932D01*
X656665Y320959D01*
X656657Y320988D01*
X656651Y321017D01*
Y324308D01*
X656570Y324718D01*
X656337Y325065D01*
X651313Y330090D01*
X651210Y330201D01*
X651147Y330279D01*
Y338016D01*
D02*
G37*
G36*
X623554Y337975D02*
X615067D01*
Y328701D01*
X618321D01*
Y320976D01*
X618315Y320947D01*
X618307Y320918D01*
X618296Y320890D01*
X618283Y320863D01*
X618267Y320836D01*
X618247Y320807D01*
X618234Y320791D01*
X618165Y320745D01*
X617790Y320183D01*
X617658Y319519D01*
X617790Y318856D01*
X618165Y318294D01*
X618728Y317918D01*
X619391Y317786D01*
X620054Y317918D01*
X620617Y318294D01*
X620993Y318856D01*
X621124Y319519D01*
X620993Y320183D01*
X620617Y320745D01*
X620548Y320791D01*
X620535Y320807D01*
X620515Y320836D01*
X620499Y320863D01*
X620486Y320890D01*
X620475Y320918D01*
X620467Y320947D01*
X620462Y320976D01*
Y328701D01*
X623554D01*
Y337975D01*
D02*
G37*
G36*
X667472Y329655D02*
X662528D01*
Y323535D01*
X663929D01*
Y317656D01*
X663924Y317628D01*
X663916Y317599D01*
X663905Y317571D01*
X663892Y317544D01*
X663876Y317516D01*
X663856Y317487D01*
X663843Y317472D01*
X663774Y317426D01*
X663399Y316863D01*
X663267Y316200D01*
X663399Y315537D01*
X663774Y314974D01*
X664337Y314599D01*
X665000Y314467D01*
X665663Y314599D01*
X666226Y314974D01*
X666601Y315537D01*
X666733Y316200D01*
X666601Y316863D01*
X666226Y317426D01*
X666157Y317472D01*
X666144Y317487D01*
X666124Y317516D01*
X666108Y317544D01*
X666095Y317571D01*
X666084Y317599D01*
X666076Y317628D01*
X666071Y317656D01*
Y323535D01*
X667472D01*
Y329655D01*
D02*
G37*
G36*
X802800Y317383D02*
X802137Y317251D01*
X801574Y316876D01*
X801199Y316313D01*
X801067Y315650D01*
Y314900D01*
X801199Y314237D01*
X801574Y313674D01*
X802137Y313299D01*
X802800Y313167D01*
X803463Y313299D01*
X804026Y313674D01*
X804401Y314237D01*
X804533Y314900D01*
Y315650D01*
X804401Y316313D01*
X804026Y316876D01*
X803463Y317251D01*
X802800Y317383D01*
D02*
G37*
G36*
X768193Y338016D02*
X759707D01*
Y328742D01*
X762892D01*
Y326756D01*
X762887Y326728D01*
X762879Y326699D01*
X762868Y326671D01*
X762855Y326644D01*
X762839Y326616D01*
X762819Y326587D01*
X762806Y326572D01*
X762737Y326526D01*
X762362Y325963D01*
X762230Y325300D01*
X762362Y324637D01*
X762737Y324074D01*
X762819Y324020D01*
X762841Y323994D01*
X762860Y323967D01*
X762875Y323941D01*
X762888Y323916D01*
X762897Y323890D01*
X762906Y323863D01*
X762911Y323836D01*
Y312048D01*
X762905Y312018D01*
X762897Y311987D01*
X762886Y311958D01*
X762872Y311929D01*
X762856Y311899D01*
X762835Y311868D01*
X762831Y311863D01*
X762774Y311826D01*
X762399Y311263D01*
X762267Y310600D01*
X762399Y309937D01*
X762774Y309374D01*
X763337Y308999D01*
X764000Y308867D01*
X764663Y308999D01*
X765226Y309374D01*
X765601Y309937D01*
X765733Y310600D01*
X765601Y311263D01*
X765226Y311826D01*
X765144Y311880D01*
X765122Y311906D01*
X765103Y311933D01*
X765088Y311959D01*
X765075Y311984D01*
X765065Y312010D01*
X765058Y312037D01*
X765052Y312064D01*
Y323852D01*
X765058Y323882D01*
X765066Y323913D01*
X765077Y323942D01*
X765091Y323971D01*
X765107Y324001D01*
X765128Y324032D01*
X765132Y324037D01*
X765189Y324074D01*
X765564Y324637D01*
X765696Y325300D01*
X765564Y325963D01*
X765189Y326526D01*
X765120Y326572D01*
X765107Y326587D01*
X765087Y326616D01*
X765071Y326644D01*
X765058Y326671D01*
X765047Y326698D01*
X765039Y326728D01*
X765034Y326756D01*
Y328742D01*
X768193D01*
Y338016D01*
D02*
G37*
G36*
X632904Y313833D02*
X632240Y313701D01*
X631678Y313326D01*
X631302Y312763D01*
X631170Y312100D01*
X631302Y311437D01*
X631678Y310874D01*
X631747Y310828D01*
X631760Y310813D01*
X631780Y310784D01*
X631796Y310756D01*
X631809Y310729D01*
X631819Y310701D01*
X631828Y310672D01*
X631833Y310644D01*
Y304774D01*
X631828Y304747D01*
X631820Y304719D01*
X631810Y304693D01*
X631797Y304668D01*
X631782Y304642D01*
X631762Y304614D01*
X631742Y304590D01*
X631663Y304537D01*
X631287Y303975D01*
X631155Y303311D01*
X631287Y302648D01*
X631663Y302086D01*
X632225Y301710D01*
X632889Y301578D01*
X633552Y301710D01*
X634114Y302086D01*
X634490Y302648D01*
X634622Y303311D01*
X634490Y303975D01*
X634114Y304537D01*
X634056Y304576D01*
X634050Y304583D01*
X634029Y304614D01*
X634013Y304643D01*
X633999Y304672D01*
X633989Y304701D01*
X633980Y304731D01*
X633974Y304761D01*
Y310644D01*
X633980Y310672D01*
X633988Y310701D01*
X633999Y310729D01*
X634011Y310756D01*
X634027Y310784D01*
X634048Y310813D01*
X634060Y310828D01*
X634129Y310874D01*
X634505Y311437D01*
X634637Y312100D01*
X634505Y312763D01*
X634129Y313326D01*
X633567Y313701D01*
X632904Y313833D01*
D02*
G37*
G36*
X640260Y313759D02*
X639597Y313627D01*
X639034Y313252D01*
X639004Y313222D01*
X638629Y312659D01*
X638497Y311996D01*
Y303130D01*
X638629Y302467D01*
X639004Y301904D01*
X639125Y301824D01*
X641174Y299774D01*
X641737Y299399D01*
X642400Y299267D01*
X643063Y299399D01*
X643626Y299774D01*
X644001Y300337D01*
X644133Y301000D01*
X644001Y301663D01*
X643626Y302226D01*
X641963Y303888D01*
Y311875D01*
X641993Y312026D01*
X641861Y312689D01*
X641486Y313252D01*
X640923Y313627D01*
X640260Y313759D01*
D02*
G37*
G36*
X700834Y297355D02*
X695497D01*
Y294276D01*
X691566D01*
Y296616D01*
X685708D01*
Y289795D01*
X691566D01*
Y292135D01*
X695497D01*
Y290445D01*
X700834D01*
Y297355D01*
D02*
G37*
G36*
X683692Y296616D02*
X677834D01*
Y289795D01*
X683692D01*
Y296616D01*
D02*
G37*
G36*
X780300Y312733D02*
X779637Y312601D01*
X779074Y312226D01*
X778699Y311663D01*
X778567Y311000D01*
X778699Y310337D01*
X779067Y309786D01*
X779067Y309784D01*
X779073Y309748D01*
X779076Y309706D01*
Y300472D01*
X776788Y298183D01*
X776616Y298023D01*
X776477Y297911D01*
X776401Y297858D01*
X769707D01*
Y288584D01*
X778193D01*
Y296066D01*
X778241Y296134D01*
X778476Y296410D01*
X781165Y299100D01*
X781430Y299497D01*
X781524Y299965D01*
Y309720D01*
X781526Y309740D01*
X781533Y309784D01*
X781533Y309786D01*
X781901Y310337D01*
X782033Y311000D01*
X781901Y311663D01*
X781526Y312226D01*
X780963Y312601D01*
X780300Y312733D01*
D02*
G37*
G36*
X768193Y297858D02*
X759707D01*
Y288584D01*
X768193D01*
Y297858D01*
D02*
G37*
G36*
X651147D02*
X642660D01*
Y288584D01*
X651147D01*
Y297858D01*
D02*
G37*
%LPD*%
G36*
X610034Y343616D02*
X609974Y343543D01*
X609922Y343468D01*
X609876Y343390D01*
X609837Y343309D01*
X609806Y343225D01*
X609782Y343139D01*
X609764Y343050D01*
X609754Y342958D01*
X609750Y342863D01*
X609050D01*
X609047Y342958D01*
X609036Y343050D01*
X609019Y343139D01*
X608994Y343225D01*
X608962Y343309D01*
X608924Y343390D01*
X608879Y343468D01*
X608826Y343543D01*
X608767Y343616D01*
X608700Y343686D01*
X610100D01*
X610034Y343616D01*
D02*
G37*
G36*
X609754Y337830D02*
X609764Y337711D01*
X609782Y337606D01*
X609806Y337515D01*
X609837Y337438D01*
X609876Y337375D01*
X609922Y337326D01*
X609974Y337291D01*
X610034Y337270D01*
X610100Y337263D01*
X608700D01*
X608767Y337270D01*
X608826Y337291D01*
X608879Y337326D01*
X608924Y337375D01*
X608962Y337438D01*
X608994Y337515D01*
X609019Y337606D01*
X609036Y337711D01*
X609047Y337830D01*
X609050Y337963D01*
X609750D01*
X609754Y337830D01*
D02*
G37*
G36*
X705263Y335752D02*
X705194Y335686D01*
X705133Y335616D01*
X705078Y335544D01*
X705031Y335468D01*
X704991Y335389D01*
X704958Y335307D01*
X704933Y335222D01*
X704915Y335133D01*
X704904Y335041D01*
X704900Y334946D01*
X704200Y334983D01*
X704197Y335078D01*
X704187Y335169D01*
X704170Y335259D01*
X704146Y335346D01*
X704116Y335431D01*
X704079Y335513D01*
X704036Y335594D01*
X703986Y335672D01*
X703929Y335748D01*
X703865Y335822D01*
X705263Y335752D01*
D02*
G37*
G36*
X707233Y325516D02*
X707174Y325443D01*
X707122Y325368D01*
X707076Y325290D01*
X707037Y325209D01*
X707006Y325125D01*
X706982Y325039D01*
X706964Y324950D01*
X706953Y324858D01*
X706950Y324763D01*
X706250D01*
X706247Y324858D01*
X706236Y324950D01*
X706218Y325039D01*
X706194Y325125D01*
X706163Y325209D01*
X706124Y325290D01*
X706078Y325368D01*
X706026Y325443D01*
X705967Y325516D01*
X705900Y325586D01*
X707300D01*
X707233Y325516D01*
D02*
G37*
G36*
X719512Y324485D02*
X719455Y324521D01*
X719390Y324537D01*
X719314Y324534D01*
X719230Y324512D01*
X719135Y324471D01*
X719032Y324411D01*
X718918Y324331D01*
X718796Y324233D01*
X718522Y323978D01*
X717959Y324406D01*
X718102Y324554D01*
X718327Y324816D01*
X718408Y324932D01*
X718469Y325036D01*
X718509Y325130D01*
X718529Y325212D01*
X718529Y325284D01*
X718508Y325346D01*
X718467Y325396D01*
X719512Y324485D01*
D02*
G37*
G36*
X708975Y322522D02*
X708880Y322581D01*
X708783Y322635D01*
X708684Y322682D01*
X708583Y322722D01*
X708480Y322757D01*
X708376Y322785D01*
X708269Y322807D01*
X708160Y322823D01*
X708049Y322832D01*
X707936Y322835D01*
Y323535D01*
X708049Y323538D01*
X708160Y323548D01*
X708269Y323564D01*
X708376Y323586D01*
X708480Y323614D01*
X708583Y323648D01*
X708684Y323689D01*
X708783Y323736D01*
X708880Y323789D01*
X708975Y323849D01*
Y322522D01*
D02*
G37*
G36*
X746655Y321406D02*
X746648Y321473D01*
X746627Y321532D01*
X746592Y321585D01*
X746543Y321630D01*
X746480Y321669D01*
X746403Y321700D01*
X746312Y321725D01*
X746207Y321742D01*
X746088Y321753D01*
X745955Y321756D01*
Y322456D01*
X746088Y322460D01*
X746207Y322470D01*
X746312Y322487D01*
X746403Y322512D01*
X746480Y322544D01*
X746543Y322582D01*
X746592Y322627D01*
X746627Y322680D01*
X746648Y322740D01*
X746655Y322806D01*
Y321406D01*
D02*
G37*
G36*
X715851Y321308D02*
X715773Y321226D01*
X715702Y321141D01*
X715636Y321053D01*
X715576Y320961D01*
X715522Y320867D01*
X715473Y320770D01*
X715431Y320670D01*
X715394Y320567D01*
X715363Y320461D01*
X715339Y320351D01*
X714403Y321333D01*
X714455Y321293D01*
X714517Y321272D01*
X714588Y321271D01*
X714669Y321289D01*
X714759Y321326D01*
X714859Y321383D01*
X714969Y321459D01*
X715089Y321554D01*
X715217Y321669D01*
X715356Y321803D01*
X715851Y321308D01*
D02*
G37*
G36*
X738137Y324182D02*
X739232Y323223D01*
X739555Y322989D01*
X739856Y322797D01*
X740137Y322648D01*
X740396Y322541D01*
X740635Y322477D01*
X740852Y322456D01*
X740852Y321756D01*
X740635Y321735D01*
X740396Y321671D01*
X740137Y321564D01*
X739856Y321415D01*
X739555Y321223D01*
X739232Y320989D01*
X738524Y320392D01*
X738138Y320030D01*
X737731Y319626D01*
X737730Y324586D01*
X738137Y324182D01*
D02*
G37*
G36*
X735164Y318563D02*
X734590Y318561D01*
X733138Y318465D01*
X732745Y318402D01*
X732396Y318325D01*
X732092Y318232D01*
X731833Y318124D01*
X731620Y318000D01*
X731451Y317862D01*
X730956Y318357D01*
X731094Y318526D01*
X731218Y318739D01*
X731326Y318998D01*
X731419Y319302D01*
X731496Y319651D01*
X731559Y320044D01*
X731638Y320967D01*
X731655Y321496D01*
X731657Y322071D01*
X735164Y318563D01*
D02*
G37*
G36*
X715045Y318671D02*
X715141Y318618D01*
X715240Y318571D01*
X715341Y318530D01*
X715444Y318496D01*
X715549Y318467D01*
X715656Y318445D01*
X715765Y318430D01*
X715875Y318420D01*
X715988Y318417D01*
Y317717D01*
X715875Y317714D01*
X715765Y317705D01*
X715656Y317689D01*
X715549Y317667D01*
X715444Y317639D01*
X715341Y317604D01*
X715240Y317564D01*
X715141Y317517D01*
X715045Y317463D01*
X714950Y317404D01*
Y318731D01*
X715045Y318671D01*
D02*
G37*
G36*
X718467Y317367D02*
X718459Y317434D01*
X718438Y317493D01*
X718402Y317546D01*
X718353Y317591D01*
X718289Y317630D01*
X718210Y317661D01*
X718118Y317686D01*
X718011Y317703D01*
X717890Y317714D01*
X717755Y317717D01*
Y318417D01*
X717890Y318421D01*
X718011Y318431D01*
X718118Y318449D01*
X718210Y318473D01*
X718289Y318505D01*
X718353Y318543D01*
X718402Y318589D01*
X718438Y318641D01*
X718459Y318701D01*
X718467Y318767D01*
Y317367D01*
D02*
G37*
G36*
X715045Y316112D02*
X715141Y316059D01*
X715240Y316012D01*
X715341Y315971D01*
X715444Y315937D01*
X715549Y315909D01*
X715656Y315886D01*
X715765Y315871D01*
X715875Y315861D01*
X715988Y315858D01*
Y315158D01*
X715875Y315155D01*
X715765Y315146D01*
X715656Y315130D01*
X715549Y315108D01*
X715444Y315080D01*
X715341Y315045D01*
X715240Y315005D01*
X715141Y314957D01*
X715045Y314904D01*
X714950Y314845D01*
Y316172D01*
X715045Y316112D01*
D02*
G37*
G36*
X706984Y322428D02*
X707332Y322196D01*
X707741Y322115D01*
X707741Y322115D01*
X707970D01*
X708197Y321685D01*
X708196Y321655D01*
X708184Y321586D01*
X708181Y321576D01*
X707915Y321179D01*
X707805Y320626D01*
X707915Y320074D01*
X708228Y319605D01*
X708697Y319292D01*
X709250Y319182D01*
X710889D01*
X710926Y319140D01*
X711110Y318682D01*
X710973Y318477D01*
X710892Y318067D01*
X710973Y317658D01*
X711110Y317453D01*
X710926Y316995D01*
X710889Y316953D01*
X709250D01*
X708697Y316843D01*
X708228Y316530D01*
X707915Y316061D01*
X707805Y315508D01*
X707915Y314956D01*
X708189Y314546D01*
X708241Y314352D01*
Y314105D01*
X708189Y313912D01*
X708093Y313767D01*
X707479Y313674D01*
X705621Y315532D01*
Y323085D01*
X706121Y323292D01*
X706984Y322428D01*
D02*
G37*
G36*
X715045Y313553D02*
X715141Y313500D01*
X715240Y313453D01*
X715341Y313412D01*
X715444Y313378D01*
X715549Y313350D01*
X715656Y313328D01*
X715765Y313312D01*
X715875Y313302D01*
X715988Y313299D01*
Y312599D01*
X715875Y312596D01*
X715765Y312587D01*
X715656Y312571D01*
X715549Y312549D01*
X715444Y312521D01*
X715341Y312486D01*
X715240Y312446D01*
X715141Y312399D01*
X715045Y312345D01*
X714950Y312286D01*
Y313613D01*
X715045Y313553D01*
D02*
G37*
G36*
X708707Y311432D02*
X708955Y311222D01*
X709065Y311146D01*
X709165Y311089D01*
X709256Y311052D01*
X709336Y311034D01*
X709408Y311035D01*
X709469Y311056D01*
X709521Y311096D01*
X708586Y310114D01*
X708561Y310224D01*
X708530Y310330D01*
X708494Y310433D01*
X708451Y310533D01*
X708403Y310630D01*
X708349Y310724D01*
X708288Y310816D01*
X708223Y310904D01*
X708151Y310989D01*
X708073Y311071D01*
X708568Y311566D01*
X708707Y311432D01*
D02*
G37*
G36*
X715039Y310997D02*
X715132Y310947D01*
X715227Y310903D01*
X715325Y310865D01*
X715426Y310832D01*
X715530Y310806D01*
X715637Y310785D01*
X715747Y310771D01*
X715860Y310762D01*
X715975Y310759D01*
X716001Y310059D01*
X715891Y310055D01*
X715782Y310046D01*
X715674Y310029D01*
X715568Y310005D01*
X715462Y309976D01*
X715357Y309939D01*
X715254Y309896D01*
X715151Y309846D01*
X715050Y309789D01*
X714950Y309726D01*
Y311053D01*
X715039Y310997D01*
D02*
G37*
G36*
X720459Y309715D02*
X720387Y309780D01*
X720313Y309839D01*
X720237Y309890D01*
X720158Y309935D01*
X720076Y309973D01*
X719992Y310004D01*
X719905Y310028D01*
X719816Y310045D01*
X719724Y310055D01*
X719630Y310059D01*
X719615Y310759D01*
X719710Y310762D01*
X719802Y310773D01*
X719891Y310791D01*
X719977Y310816D01*
X720060Y310848D01*
X720140Y310887D01*
X720217Y310933D01*
X720292Y310986D01*
X720363Y311047D01*
X720432Y311114D01*
X720459Y309715D01*
D02*
G37*
G36*
X730290Y308300D02*
X730194Y308298D01*
X730100Y308288D01*
X730010Y308272D01*
X729922Y308249D01*
X729838Y308219D01*
X729756Y308182D01*
X729678Y308138D01*
X729602Y308088D01*
X729530Y308030D01*
X729461Y307966D01*
X728966Y308461D01*
X729030Y308530D01*
X729088Y308602D01*
X729138Y308678D01*
X729182Y308756D01*
X729219Y308838D01*
X729249Y308922D01*
X729272Y309010D01*
X729288Y309100D01*
X729298Y309193D01*
X729300Y309290D01*
X730290Y308300D01*
D02*
G37*
G36*
X735561Y307450D02*
X735593Y307258D01*
X735646Y307078D01*
X735721Y306909D01*
X735817Y306752D01*
X735934Y306607D01*
X736073Y306473D01*
X736233Y306351D01*
X736415Y306241D01*
X736618Y306142D01*
X733782D01*
X733985Y306241D01*
X734167Y306351D01*
X734327Y306473D01*
X734466Y306607D01*
X734583Y306752D01*
X734679Y306909D01*
X734754Y307078D01*
X734807Y307258D01*
X734839Y307450D01*
X734850Y307653D01*
X735550D01*
X735561Y307450D01*
D02*
G37*
G36*
X715045Y305875D02*
X715141Y305822D01*
X715240Y305775D01*
X715341Y305734D01*
X715444Y305700D01*
X715549Y305672D01*
X715656Y305649D01*
X715765Y305634D01*
X715875Y305624D01*
X715988Y305621D01*
Y304921D01*
X715875Y304918D01*
X715765Y304909D01*
X715656Y304893D01*
X715549Y304871D01*
X715444Y304843D01*
X715341Y304808D01*
X715240Y304768D01*
X715141Y304721D01*
X715045Y304667D01*
X714950Y304608D01*
Y305935D01*
X715045Y305875D01*
D02*
G37*
G36*
X746666Y302194D02*
X746659Y302260D01*
X746638Y302320D01*
X746602Y302373D01*
X746553Y302418D01*
X746489Y302456D01*
X746410Y302488D01*
X746318Y302513D01*
X746211Y302530D01*
X746090Y302540D01*
X745955Y302544D01*
Y303244D01*
X746090Y303247D01*
X746211Y303258D01*
X746318Y303275D01*
X746410Y303300D01*
X746489Y303331D01*
X746553Y303370D01*
X746602Y303415D01*
X746638Y303468D01*
X746659Y303527D01*
X746666Y303594D01*
Y302194D01*
D02*
G37*
G36*
X712596Y301999D02*
X712536Y301977D01*
X712484Y301942D01*
X712438Y301892D01*
X712400Y301828D01*
X712368Y301750D01*
X712344Y301657D01*
X712326Y301550D01*
X712316Y301429D01*
X712312Y301294D01*
X711612D01*
X711609Y301429D01*
X711598Y301550D01*
X711581Y301657D01*
X711556Y301750D01*
X711525Y301828D01*
X711486Y301892D01*
X711441Y301942D01*
X711388Y301977D01*
X711329Y301999D01*
X711262Y302006D01*
X712662D01*
X712596Y301999D01*
D02*
G37*
G36*
X738138Y304970D02*
X739232Y304011D01*
X739555Y303777D01*
X739856Y303585D01*
X740137Y303436D01*
X740396Y303329D01*
X740635Y303265D01*
X740852Y303244D01*
X740852Y302544D01*
X740635Y302523D01*
X740396Y302459D01*
X740137Y302352D01*
X739856Y302203D01*
X739555Y302011D01*
X739232Y301777D01*
X738523Y301181D01*
X738137Y300818D01*
X737730Y300414D01*
X737731Y305374D01*
X738138Y304970D01*
D02*
G37*
G36*
X708886Y296643D02*
X708748Y296499D01*
X708530Y296242D01*
X708451Y296128D01*
X708392Y296024D01*
X708352Y295930D01*
X708332Y295846D01*
Y295772D01*
X708352Y295708D01*
X708392Y295653D01*
X707402Y296643D01*
X707456Y296603D01*
X707520Y296584D01*
X707595D01*
X707679Y296603D01*
X707773Y296643D01*
X707877Y296702D01*
X707991Y296782D01*
X708114Y296881D01*
X708392Y297138D01*
X708886Y296643D01*
D02*
G37*
G36*
X650385Y330391D02*
X650366Y330327D01*
X650367Y330254D01*
X650388Y330170D01*
X650429Y330076D01*
X650490Y329972D01*
X650570Y329857D01*
X650670Y329733D01*
X650930Y329454D01*
X650435Y328959D01*
X650290Y329099D01*
X650031Y329319D01*
X649917Y329399D01*
X649813Y329460D01*
X649719Y329501D01*
X649635Y329522D01*
X649562Y329523D01*
X649498Y329504D01*
X649445Y329466D01*
X650423Y330444D01*
X650385Y330391D01*
D02*
G37*
G36*
X655934Y321003D02*
X655944Y320911D01*
X655962Y320822D01*
X655986Y320736D01*
X656018Y320652D01*
X656056Y320571D01*
X656102Y320493D01*
X656154Y320417D01*
X656214Y320345D01*
X656281Y320275D01*
X654881D01*
X654947Y320345D01*
X655007Y320417D01*
X655059Y320493D01*
X655104Y320571D01*
X655143Y320652D01*
X655174Y320736D01*
X655199Y320822D01*
X655217Y320911D01*
X655227Y321003D01*
X655231Y321097D01*
X655931D01*
X655934Y321003D01*
D02*
G37*
G36*
X620025Y329418D02*
X619965Y329396D01*
X619913Y329361D01*
X619867Y329311D01*
X619829Y329247D01*
X619797Y329169D01*
X619773Y329076D01*
X619755Y328969D01*
X619745Y328848D01*
X619741Y328713D01*
X619041D01*
X619038Y328848D01*
X619027Y328969D01*
X619010Y329076D01*
X618985Y329169D01*
X618954Y329247D01*
X618915Y329311D01*
X618870Y329361D01*
X618817Y329396D01*
X618758Y329418D01*
X618691Y329425D01*
X620091D01*
X620025Y329418D01*
D02*
G37*
G36*
X619745Y320962D02*
X619755Y320870D01*
X619773Y320781D01*
X619797Y320694D01*
X619829Y320611D01*
X619867Y320530D01*
X619913Y320452D01*
X619965Y320376D01*
X620025Y320304D01*
X620091Y320233D01*
X618691D01*
X618758Y320304D01*
X618817Y320376D01*
X618870Y320452D01*
X618915Y320530D01*
X618954Y320611D01*
X618985Y320694D01*
X619010Y320781D01*
X619027Y320870D01*
X619038Y320962D01*
X619041Y321056D01*
X619741D01*
X619745Y320962D01*
D02*
G37*
G36*
X665633Y324252D02*
X665574Y324231D01*
X665521Y324195D01*
X665476Y324145D01*
X665438Y324081D01*
X665406Y324003D01*
X665381Y323910D01*
X665364Y323803D01*
X665353Y323682D01*
X665350Y323547D01*
X664650D01*
X664646Y323682D01*
X664636Y323803D01*
X664618Y323910D01*
X664594Y324003D01*
X664563Y324081D01*
X664524Y324145D01*
X664478Y324195D01*
X664426Y324231D01*
X664366Y324252D01*
X664300Y324259D01*
X665700D01*
X665633Y324252D01*
D02*
G37*
G36*
X665353Y317642D02*
X665364Y317550D01*
X665381Y317461D01*
X665406Y317375D01*
X665438Y317291D01*
X665476Y317210D01*
X665521Y317132D01*
X665574Y317057D01*
X665633Y316984D01*
X665700Y316914D01*
X664300D01*
X664366Y316984D01*
X664426Y317057D01*
X664478Y317132D01*
X664524Y317210D01*
X664563Y317291D01*
X664594Y317375D01*
X664618Y317461D01*
X664636Y317550D01*
X664646Y317642D01*
X664650Y317737D01*
X665350D01*
X665353Y317642D01*
D02*
G37*
G36*
X764597Y329447D02*
X764537Y329426D01*
X764485Y329391D01*
X764439Y329342D01*
X764400Y329279D01*
X764369Y329202D01*
X764345Y329111D01*
X764327Y329006D01*
X764317Y328887D01*
X764313Y328754D01*
X763613D01*
X763610Y328887D01*
X763599Y329006D01*
X763582Y329111D01*
X763557Y329202D01*
X763525Y329279D01*
X763487Y329342D01*
X763442Y329391D01*
X763389Y329426D01*
X763330Y329447D01*
X763263Y329454D01*
X764663D01*
X764597Y329447D01*
D02*
G37*
G36*
X764317Y326742D02*
X764327Y326650D01*
X764345Y326561D01*
X764369Y326475D01*
X764400Y326391D01*
X764439Y326310D01*
X764485Y326232D01*
X764537Y326157D01*
X764597Y326084D01*
X764663Y326014D01*
X763263D01*
X763330Y326084D01*
X763389Y326157D01*
X763442Y326232D01*
X763487Y326310D01*
X763525Y326391D01*
X763557Y326475D01*
X763582Y326561D01*
X763599Y326650D01*
X763610Y326742D01*
X763613Y326837D01*
X764313D01*
X764317Y326742D01*
D02*
G37*
G36*
X764611Y324528D02*
X764552Y324454D01*
X764500Y324377D01*
X764456Y324298D01*
X764418Y324217D01*
X764387Y324132D01*
X764362Y324046D01*
X764345Y323956D01*
X764335Y323865D01*
X764331Y323770D01*
X763631Y323757D01*
X763628Y323851D01*
X763617Y323943D01*
X763599Y324032D01*
X763575Y324118D01*
X763543Y324201D01*
X763504Y324281D01*
X763457Y324359D01*
X763404Y324433D01*
X763344Y324504D01*
X763276Y324573D01*
X764676Y324599D01*
X764611Y324528D01*
D02*
G37*
G36*
X764335Y312049D02*
X764346Y311957D01*
X764363Y311868D01*
X764388Y311782D01*
X764420Y311699D01*
X764459Y311619D01*
X764505Y311541D01*
X764559Y311467D01*
X764619Y311396D01*
X764687Y311327D01*
X763287Y311301D01*
X763352Y311372D01*
X763411Y311446D01*
X763463Y311523D01*
X763507Y311602D01*
X763545Y311684D01*
X763576Y311768D01*
X763600Y311854D01*
X763618Y311944D01*
X763628Y312035D01*
X763631Y312130D01*
X764331Y312143D01*
X764335Y312049D01*
D02*
G37*
G36*
X633537Y311316D02*
X633478Y311243D01*
X633425Y311168D01*
X633380Y311090D01*
X633341Y311009D01*
X633310Y310925D01*
X633285Y310839D01*
X633268Y310750D01*
X633257Y310658D01*
X633254Y310563D01*
X632554D01*
X632550Y310658D01*
X632540Y310750D01*
X632522Y310839D01*
X632498Y310925D01*
X632466Y311009D01*
X632428Y311090D01*
X632382Y311168D01*
X632330Y311243D01*
X632270Y311316D01*
X632204Y311386D01*
X633604D01*
X633537Y311316D01*
D02*
G37*
G36*
X633254Y304842D02*
X633257Y304748D01*
X633268Y304656D01*
X633285Y304567D01*
X633309Y304480D01*
X633340Y304396D01*
X633378Y304315D01*
X633423Y304236D01*
X633475Y304160D01*
X633534Y304086D01*
X633599Y304015D01*
X632199Y304036D01*
X632267Y304105D01*
X632327Y304177D01*
X632380Y304251D01*
X632426Y304329D01*
X632465Y304409D01*
X632497Y304492D01*
X632522Y304578D01*
X632540Y304667D01*
X632550Y304759D01*
X632554Y304854D01*
X633254Y304842D01*
D02*
G37*
G36*
X696220Y292506D02*
X696213Y292572D01*
X696192Y292632D01*
X696156Y292684D01*
X696107Y292730D01*
X696042Y292768D01*
X695964Y292800D01*
X695872Y292824D01*
X695765Y292842D01*
X695644Y292852D01*
X695508Y292856D01*
Y293556D01*
X695644Y293559D01*
X695765Y293570D01*
X695872Y293587D01*
X695964Y293612D01*
X696042Y293643D01*
X696107Y293682D01*
X696156Y293727D01*
X696192Y293780D01*
X696213Y293839D01*
X696220Y293906D01*
Y292506D01*
D02*
G37*
G36*
X690849Y293839D02*
X690871Y293780D01*
X690906Y293727D01*
X690956Y293682D01*
X691020Y293643D01*
X691099Y293612D01*
X691191Y293587D01*
X691298Y293570D01*
X691419Y293559D01*
X691554Y293556D01*
Y292856D01*
X691419Y292852D01*
X691298Y292842D01*
X691191Y292824D01*
X691099Y292800D01*
X691020Y292768D01*
X690956Y292730D01*
X690906Y292684D01*
X690871Y292632D01*
X690849Y292572D01*
X690842Y292506D01*
Y293906D01*
X690849Y293839D01*
D02*
G37*
G36*
X780962Y310243D02*
X780928Y310193D01*
X780898Y310136D01*
X780872Y310071D01*
X780850Y310000D01*
X780832Y309921D01*
X780818Y309835D01*
X780808Y309742D01*
X780800Y309534D01*
X779800D01*
X779798Y309642D01*
X779782Y309835D01*
X779768Y309921D01*
X779750Y310000D01*
X779728Y310071D01*
X779702Y310136D01*
X779672Y310193D01*
X779638Y310243D01*
X779600Y310286D01*
X781000D01*
X780962Y310243D01*
D02*
G37*
G36*
X778188Y297146D02*
X777989Y296940D01*
X777676Y296571D01*
X777561Y296408D01*
X777475Y296259D01*
X777418Y296125D01*
X777388Y296005D01*
X777387Y295900D01*
X777414Y295809D01*
X777469Y295732D01*
X776067Y297134D01*
X776144Y297079D01*
X776235Y297052D01*
X776340Y297053D01*
X776460Y297082D01*
X776594Y297140D01*
X776743Y297226D01*
X776906Y297340D01*
X777083Y297483D01*
X777481Y297853D01*
X778188Y297146D01*
D02*
G37*
D11*
X669800Y299500D02*
X671300Y298000D01*
X669800Y299500D02*
Y312100D01*
X671300Y294606D02*
X672700Y293206D01*
X671300Y294606D02*
Y298000D01*
X780300Y299965D02*
Y311000D01*
X773950Y293221D02*
Y293615D01*
X780300Y299965D01*
D15*
X675000Y326595D02*
D03*
X665000D02*
D03*
Y301005D02*
D03*
X675000D02*
D03*
D16*
X619310Y333338D02*
D03*
X609310D02*
D03*
Y293180D02*
D03*
X619310D02*
D03*
X646904Y333379D02*
D03*
X636903D02*
D03*
Y293221D02*
D03*
X646904D02*
D03*
X763950D02*
D03*
X773950D02*
D03*
Y333379D02*
D03*
X763950D02*
D03*
D17*
X688637Y293206D02*
D03*
X680763D02*
D03*
X672700D02*
D03*
X664826D02*
D03*
D18*
X721100Y327237D02*
D03*
Y319363D02*
D03*
X749300Y322663D02*
D03*
Y330537D02*
D03*
Y302837D02*
D03*
Y294963D02*
D03*
D19*
X689356Y325744D02*
D03*
Y323185D02*
D03*
Y320626D02*
D03*
Y318067D02*
D03*
Y315508D02*
D03*
Y312949D02*
D03*
Y310389D02*
D03*
Y307830D02*
D03*
Y305271D02*
D03*
Y302712D02*
D03*
X711962Y325744D02*
D03*
Y323185D02*
D03*
Y320626D02*
D03*
Y318067D02*
D03*
Y315508D02*
D03*
Y312949D02*
D03*
Y310389D02*
D03*
Y307830D02*
D03*
Y305271D02*
D03*
Y302712D02*
D03*
D20*
X706435Y293900D02*
D03*
X698165D02*
D03*
D35*
X802800Y304900D02*
X803206D01*
X805606Y302500D01*
X818100D01*
X827900Y294600D02*
Y308464D01*
X818100Y312500D02*
X818746Y311854D01*
X824510D01*
X827900Y308464D01*
X821500Y288200D02*
X827900Y294600D01*
X809500Y288200D02*
X821500D01*
X802800Y294900D02*
X809500Y288200D01*
X607800Y294494D02*
X609212Y293082D01*
X609310Y292890D02*
Y293180D01*
X607800Y294494D02*
Y294700D01*
X609212Y292988D02*
X609310Y292890D01*
X609212Y292988D02*
Y293082D01*
X655600Y283500D02*
X656500Y282600D01*
X655600Y283500D02*
Y312100D01*
X656500Y282600D02*
X780328Y282600D01*
X598675Y282600D02*
X656500D01*
X587800Y293475D02*
X598675Y282600D01*
X802800Y294900D02*
X803200Y295300D01*
X802628Y304900D02*
X802800D01*
X780328Y282600D02*
X802628Y304900D01*
D36*
X704550Y315089D02*
Y336450D01*
X704600Y336500D01*
X632904Y303327D02*
Y312100D01*
X619600Y293470D02*
Y307200D01*
X632889Y303311D02*
X632904Y303327D01*
X667822Y296683D02*
Y306878D01*
X664811Y293221D02*
X664826Y293206D01*
Y293687D02*
X667822Y296683D01*
X667600Y307100D02*
X667822Y306878D01*
X664826Y293206D02*
Y293687D01*
X614500Y307300D02*
Y323800D01*
X619310Y293180D02*
X619600Y293470D01*
X612200Y303400D02*
Y313500D01*
Y303400D02*
X612300Y303300D01*
X672100Y304493D02*
X675000Y301593D01*
X671200Y321753D02*
Y338600D01*
Y321753D02*
X672100Y320853D01*
Y304493D02*
Y320853D01*
X683600Y318067D02*
X683700D01*
X694734Y310496D02*
Y333466D01*
X689356Y307830D02*
X692069D01*
X694734Y310496D01*
X694568Y333631D02*
X694734Y333466D01*
X679200Y331900D02*
Y344300D01*
Y331900D02*
X685215Y325885D01*
X706600Y324327D02*
Y326300D01*
Y324327D02*
X707741Y323185D01*
X711962D01*
X704550Y315089D02*
X709250Y310389D01*
X763981Y310618D02*
X764000Y310600D01*
X763981Y310618D02*
Y325282D01*
X763963Y325300D02*
X763981Y325282D01*
X763963Y325300D02*
Y333366D01*
X646904Y332985D02*
Y333379D01*
Y332985D02*
X655581Y324308D01*
Y319561D02*
Y324308D01*
X619310Y333338D02*
X619391Y333257D01*
Y319519D02*
Y333257D01*
X675000Y301005D02*
Y301593D01*
X665000Y316200D02*
Y326595D01*
X683700Y318067D02*
X689356D01*
X683500Y302712D02*
X689356D01*
X709250Y310389D02*
X711962D01*
X609310Y333338D02*
X609400Y333428D01*
Y344400D01*
X689216Y325885D02*
X689356Y325744D01*
X685215Y325885D02*
X689216D01*
X688637Y293206D02*
X697471D01*
X698165Y293900D01*
X711962Y300214D02*
Y302712D01*
X706435Y294687D02*
X711962Y300214D01*
X706435Y293900D02*
Y294687D01*
X735200Y302894D02*
Y307653D01*
X729903Y312949D02*
X735200Y307653D01*
X711962Y312949D02*
X729903D01*
X711962Y305271D02*
X726271D01*
X730300Y309300D01*
X763950Y333379D02*
X763963Y333366D01*
X735200Y302894D02*
X735200Y302894D01*
X749243D01*
X749300Y302837D01*
X748657Y322106D02*
X749257Y322706D01*
X735200Y322106D02*
X735200Y322106D01*
X748657D01*
X711962Y318067D02*
X719804D01*
X721100Y319363D01*
X711962Y320626D02*
X714675D01*
X718792Y324744D01*
Y324929D01*
X721100Y327237D01*
X711962Y310389D02*
X711982Y310409D01*
X721140D01*
X721159Y310428D01*
X711962Y315508D02*
X728602D01*
X735200Y322106D01*
X735200D01*
D37*
X640230Y303170D02*
X642400Y301000D01*
X640230Y303130D02*
Y311996D01*
Y303170D02*
Y311996D01*
X665000Y301000D02*
Y301005D01*
X661972D02*
X665000D01*
X660600Y291000D02*
Y299633D01*
Y289200D02*
Y291000D01*
Y286800D02*
Y289200D01*
X640230Y311996D02*
X640260Y312026D01*
X660600Y299633D02*
X661972Y301005D01*
X675300Y320000D02*
Y326295D01*
X675000Y326595D02*
X675300Y326295D01*
X802800Y314900D02*
Y315650D01*
D38*
Y304900D02*
X803200Y305300D01*
D39*
X818100Y322500D02*
D03*
Y312500D02*
D03*
X587800Y333475D02*
D03*
Y323475D02*
D03*
Y313475D02*
D03*
Y303475D02*
D03*
D40*
X818100Y302500D02*
D03*
X587800Y293475D02*
D03*
D41*
X735200Y322106D02*
D03*
Y302894D02*
D03*
D42*
X715000Y342900D02*
D03*
X705000D02*
D03*
X695000D02*
D03*
D43*
X685000D02*
D03*
D44*
X802800Y324900D02*
D03*
Y314900D02*
D03*
Y304900D02*
D03*
D45*
Y294900D02*
D03*
D46*
X636904Y333576D02*
D03*
X640260Y312026D02*
D03*
X704600Y336500D02*
D03*
X619600Y307200D02*
D03*
X632889Y303311D02*
D03*
X614500Y307300D02*
D03*
X642400Y301000D02*
D03*
X665000D02*
D03*
X660600Y286800D02*
D03*
Y289200D02*
D03*
X646904Y293221D02*
D03*
X665239Y293225D02*
D03*
X655600Y312100D02*
D03*
X609212Y293082D02*
D03*
X669800Y312100D02*
D03*
X667600Y307100D02*
D03*
X612300Y303300D02*
D03*
X632904Y312100D02*
D03*
X612200Y313500D02*
D03*
X683700Y318067D02*
D03*
X694568Y333631D02*
D03*
X679200Y344300D02*
D03*
X706600Y326300D02*
D03*
X763963Y325300D02*
D03*
X655581Y319561D02*
D03*
X619391Y319519D02*
D03*
X614500Y323800D02*
D03*
X675300Y320000D02*
D03*
X683500Y302712D02*
D03*
X671200Y338600D02*
D03*
X665000Y316200D02*
D03*
X609400Y344400D02*
D03*
X764000Y310600D02*
D03*
X780300Y311000D02*
D03*
X730300Y309300D02*
D03*
X721159Y310428D02*
D03*
X763950Y293221D02*
D03*
M02*
