G04*
G04 #@! TF.GenerationSoftware,Altium Limited,Altium Designer,20.1.8 (145)*
G04*
G04 Layer_Color=8388736*
%FSLAX25Y25*%
%MOIN*%
G70*
G04*
G04 #@! TF.SameCoordinates,ADFB47FA-FD8B-4379-A6DC-C8A90555AE01*
G04*
G04*
G04 #@! TF.FilePolarity,Negative*
G04*
G01*
G75*
%ADD21R,0.03943X0.05120*%
%ADD22R,0.07487X0.08274*%
%ADD23R,0.04859X0.05821*%
%ADD24R,0.05715X0.05951*%
%ADD25O,0.07258X0.01833*%
%ADD26R,0.04337X0.05910*%
%ADD27C,0.08268*%
%ADD28R,0.08268X0.08268*%
%ADD29C,0.07487*%
%ADD30C,0.06706*%
%ADD31R,0.06706X0.06706*%
%ADD32C,0.06400*%
%ADD33R,0.06400X0.06400*%
%ADD34C,0.02800*%
D21*
X675000Y326595D02*
D03*
X665000D02*
D03*
Y301005D02*
D03*
X675000D02*
D03*
D22*
X619310Y333338D02*
D03*
X609310D02*
D03*
Y293180D02*
D03*
X619310D02*
D03*
X646904Y333379D02*
D03*
X636903D02*
D03*
Y293221D02*
D03*
X646904D02*
D03*
X763950D02*
D03*
X773950D02*
D03*
Y333379D02*
D03*
X763950D02*
D03*
D23*
X688637Y293206D02*
D03*
X680763D02*
D03*
X672700D02*
D03*
X664826D02*
D03*
D24*
X721100Y327237D02*
D03*
Y319363D02*
D03*
X749300Y322663D02*
D03*
Y330537D02*
D03*
Y302837D02*
D03*
Y294963D02*
D03*
D25*
X689356Y325744D02*
D03*
Y323185D02*
D03*
Y320626D02*
D03*
Y318067D02*
D03*
Y315508D02*
D03*
Y312949D02*
D03*
Y310389D02*
D03*
Y307830D02*
D03*
Y305271D02*
D03*
Y302712D02*
D03*
X711962Y325744D02*
D03*
Y323185D02*
D03*
Y320626D02*
D03*
Y318067D02*
D03*
Y315508D02*
D03*
Y312949D02*
D03*
Y310389D02*
D03*
Y307830D02*
D03*
Y305271D02*
D03*
Y302712D02*
D03*
D26*
X706435Y293900D02*
D03*
X698165D02*
D03*
D27*
X818100Y322500D02*
D03*
Y312500D02*
D03*
X587800Y333475D02*
D03*
Y323475D02*
D03*
Y313475D02*
D03*
Y303475D02*
D03*
D28*
X818100Y302500D02*
D03*
X587800Y293475D02*
D03*
D29*
X735200Y322106D02*
D03*
Y302894D02*
D03*
D30*
X715000Y342900D02*
D03*
X705000D02*
D03*
X695000D02*
D03*
D31*
X685000D02*
D03*
D32*
X802800Y324900D02*
D03*
Y314900D02*
D03*
Y304900D02*
D03*
D33*
Y294900D02*
D03*
D34*
X646904Y293221D02*
D03*
M02*
