G04*
G04 #@! TF.GenerationSoftware,Altium Limited,Altium Designer,20.1.8 (145)*
G04*
G04 Layer_Color=128*
%FSLAX25Y25*%
%MOIN*%
G70*
G04*
G04 #@! TF.SameCoordinates,ADFB47FA-FD8B-4379-A6DC-C8A90555AE01*
G04*
G04*
G04 #@! TF.FilePolarity,Positive*
G04*
G01*
G75*
%ADD17R,0.04459X0.05421*%
%ADD18R,0.05315X0.05551*%
%ADD47R,0.02756X0.04921*%
%ADD48R,0.09354X0.07480*%
%ADD49R,0.05421X0.04459*%
G36*
X696893Y335720D02*
Y330680D01*
X696696Y330483D01*
X692169D01*
X691972Y330680D01*
X691991Y332334D01*
X693724D01*
Y334105D01*
X691952D01*
X691972Y335720D01*
X692169Y335916D01*
X696696D01*
X696893Y335720D01*
D02*
G37*
G36*
X688428D02*
X688409Y334105D01*
X686676D01*
Y332334D01*
X688428D01*
X688428Y330680D01*
X688232Y330483D01*
X683704D01*
X683507Y330680D01*
Y335720D01*
X683704Y335916D01*
X688232D01*
X688428Y335720D01*
D02*
G37*
G36*
X678228Y322533D02*
Y318005D01*
X678031Y317809D01*
X676378Y317828D01*
Y319561D01*
X674607D01*
Y317789D01*
X672992Y317809D01*
X672795Y318005D01*
Y322533D01*
X672992Y322730D01*
X678031D01*
X678228Y322533D01*
D02*
G37*
G36*
X658317D02*
Y318005D01*
X658120Y317809D01*
X656466Y317828D01*
Y319561D01*
X654695D01*
Y317789D01*
X653080Y317809D01*
X652883Y318005D01*
Y322533D01*
X653080Y322730D01*
X658120D01*
X658317Y322533D01*
D02*
G37*
G36*
X635816Y322533D02*
Y318005D01*
X635620Y317809D01*
X634005Y317828D01*
Y319561D01*
X632234D01*
Y317809D01*
X630580Y317809D01*
X630383Y318005D01*
Y322533D01*
X630580Y322730D01*
X635620D01*
X635816Y322533D01*
D02*
G37*
G36*
X622127Y322492D02*
Y317964D01*
X621930Y317768D01*
X620277Y317787D01*
Y319519D01*
X618505D01*
Y317748D01*
X616891Y317768D01*
X616694Y317964D01*
Y322492D01*
X616891Y322689D01*
X621930D01*
X622127Y322492D01*
D02*
G37*
G36*
X678228Y314069D02*
Y309541D01*
X678031Y309344D01*
X672992D01*
X672795Y309541D01*
Y314069D01*
X672992Y314265D01*
X674607Y314246D01*
Y312513D01*
X676378D01*
Y314265D01*
X678031Y314265D01*
X678228Y314069D01*
D02*
G37*
G36*
X658317D02*
Y309541D01*
X658120Y309344D01*
X653080D01*
X652883Y309541D01*
Y314069D01*
X653080Y314265D01*
X654695Y314246D01*
Y312513D01*
X656466D01*
Y314265D01*
X658120Y314265D01*
X658317Y314069D01*
D02*
G37*
G36*
X635620Y314265D02*
X635816Y314069D01*
Y309541D01*
X635620Y309344D01*
X630580D01*
X630383Y309541D01*
Y314069D01*
X630580Y314265D01*
X632234Y314246D01*
Y312513D01*
X634005D01*
Y314285D01*
X635620Y314265D01*
D02*
G37*
G36*
X622127Y314027D02*
Y309500D01*
X621930Y309303D01*
X616891D01*
X616694Y309500D01*
Y314027D01*
X616891Y314224D01*
X618505Y314204D01*
Y312472D01*
X620277D01*
Y314224D01*
X621930Y314224D01*
X622127Y314027D01*
D02*
G37*
G36*
X723823Y328961D02*
Y324434D01*
X723626Y324237D01*
X721972Y324257D01*
Y325989D01*
X720201D01*
Y324217D01*
X718586Y324237D01*
X718390Y324434D01*
Y328961D01*
X718586Y329158D01*
X723626D01*
X723823Y328961D01*
D02*
G37*
G36*
X774593Y327820D02*
Y322780D01*
X774396Y322584D01*
X769869D01*
X769672Y322780D01*
X769691Y324395D01*
X771424D01*
Y326166D01*
X769672D01*
X769672Y327820D01*
X769869Y328017D01*
X774396D01*
X774593Y327820D01*
D02*
G37*
G36*
X766128D02*
X766109Y326166D01*
X764376D01*
Y324395D01*
X766148D01*
X766128Y322780D01*
X765932Y322584D01*
X761404D01*
X761207Y322780D01*
Y327820D01*
X761404Y328017D01*
X765932D01*
X766128Y327820D01*
D02*
G37*
G36*
X703138Y325998D02*
Y321470D01*
X702941Y321273D01*
X701287Y321293D01*
Y323025D01*
X699516D01*
Y321253D01*
X697901Y321273D01*
X697705Y321470D01*
Y325998D01*
X697901Y326195D01*
X702941D01*
X703138Y325998D01*
D02*
G37*
G36*
X723823Y320497D02*
Y315969D01*
X723626Y315772D01*
X718586D01*
X718390Y315969D01*
Y320497D01*
X718586Y320694D01*
X720201Y320674D01*
Y318942D01*
X721972D01*
Y320694D01*
X723626Y320694D01*
X723823Y320497D01*
D02*
G37*
G36*
X703138Y317533D02*
Y313006D01*
X702941Y312809D01*
X697901D01*
X697705Y313006D01*
Y317533D01*
X697901Y317730D01*
X699516Y317710D01*
Y315978D01*
X701287D01*
Y317730D01*
X702941Y317730D01*
X703138Y317533D01*
D02*
G37*
G36*
X723797Y312889D02*
Y308361D01*
X723600Y308165D01*
X721947Y308184D01*
Y309916D01*
X720175D01*
Y308145D01*
X718561Y308165D01*
X718364Y308361D01*
Y312889D01*
X718561Y313086D01*
X723600D01*
X723797Y312889D01*
D02*
G37*
G36*
Y304424D02*
Y299897D01*
X723600Y299700D01*
X718561D01*
X718364Y299897D01*
Y304424D01*
X718561Y304621D01*
X720175Y304602D01*
Y302869D01*
X721947D01*
Y304621D01*
X723600Y304621D01*
X723797Y304424D01*
D02*
G37*
G36*
X774493Y307320D02*
Y302280D01*
X774296Y302083D01*
X769768D01*
X769572Y302280D01*
X769591Y303895D01*
X771324D01*
Y305666D01*
X769572D01*
X769572Y307320D01*
X769768Y307517D01*
X774296D01*
X774493Y307320D01*
D02*
G37*
G36*
X766028D02*
X766009Y305666D01*
X764276D01*
Y303895D01*
X766048D01*
X766028Y302280D01*
X765832Y302083D01*
X761304D01*
X761107Y302280D01*
Y307320D01*
X761304Y307517D01*
X765832D01*
X766028Y307320D01*
D02*
G37*
D17*
X694137Y333200D02*
D03*
X686263D02*
D03*
X771737Y304800D02*
D03*
X763863D02*
D03*
X771837Y325300D02*
D03*
X763963D02*
D03*
D18*
X721159Y302554D02*
D03*
Y310428D02*
D03*
X700500Y315663D02*
D03*
Y323537D02*
D03*
D47*
X647740Y312026D02*
D03*
X640260D02*
D03*
X644000Y319900D02*
D03*
D48*
X787700Y324550D02*
D03*
Y339500D02*
D03*
D49*
X633100Y319974D02*
D03*
Y312100D02*
D03*
X675512D02*
D03*
Y319974D02*
D03*
X721106Y326402D02*
D03*
Y318528D02*
D03*
X619411Y319933D02*
D03*
Y312059D02*
D03*
X655600Y312100D02*
D03*
Y319974D02*
D03*
M02*
