G04*
G04 #@! TF.GenerationSoftware,Altium Limited,Altium Designer,20.1.8 (145)*
G04*
G04 Layer_Color=128*
%FSLAX25Y25*%
%MOIN*%
G70*
G04*
G04 #@! TF.SameCoordinates,46744D66-5E37-4BAB-B845-EE8C1FCB1BFC*
G04*
G04*
G04 #@! TF.FilePolarity,Positive*
G04*
G01*
G75*
%ADD10C,0.00200*%
D10*
X815344Y322500D02*
X820856D01*
X818100Y319744D02*
Y325256D01*
X815344Y312500D02*
X820856D01*
X818100Y309744D02*
Y315256D01*
X815344Y302500D02*
X820856D01*
X818100Y299744D02*
Y305256D01*
X733428Y322106D02*
X736972D01*
X735200Y320334D02*
Y323877D01*
X733428Y302894D02*
X736972D01*
X735200Y301123D02*
Y304666D01*
X585044Y333475D02*
X590556D01*
X587800Y330719D02*
Y336231D01*
X585044Y323475D02*
X590556D01*
X587800Y320719D02*
Y326231D01*
X585044Y313475D02*
X590556D01*
X587800Y310719D02*
Y316231D01*
X585044Y303475D02*
X590556D01*
X587800Y300719D02*
Y306231D01*
X585044Y293475D02*
X590556D01*
X587800Y290719D02*
Y296231D01*
X713228Y342900D02*
X716772D01*
X715000Y341128D02*
Y344672D01*
X703228Y342900D02*
X706772D01*
X705000Y341128D02*
Y344672D01*
X693228Y342900D02*
X696772D01*
X695000Y341128D02*
Y344672D01*
X683228Y342900D02*
X686772D01*
X685000Y341128D02*
Y344672D01*
X801000Y324900D02*
X804600D01*
X802800Y323100D02*
Y326700D01*
X801000Y314900D02*
X804600D01*
X802800Y313100D02*
Y316700D01*
X801000Y304900D02*
X804600D01*
X802800Y303100D02*
Y306700D01*
X801000Y294900D02*
X804600D01*
X802800Y293100D02*
Y296700D01*
X636404Y333576D02*
X637404D01*
X636904Y333076D02*
Y334076D01*
X639760Y312026D02*
X640760D01*
X640260Y311526D02*
Y312526D01*
X704100Y336500D02*
X705100D01*
X704600Y336000D02*
Y337000D01*
X619100Y307200D02*
X620100D01*
X619600Y306700D02*
Y307700D01*
X632388Y303311D02*
X633389D01*
X632889Y302812D02*
Y303812D01*
X614000Y307300D02*
X615000D01*
X614500Y306800D02*
Y307800D01*
X641900Y301000D02*
X642900D01*
X642400Y300500D02*
Y301500D01*
X664500Y301000D02*
X665500D01*
X665000Y300500D02*
Y301500D01*
X660100Y286800D02*
X661100D01*
X660600Y286300D02*
Y287300D01*
X660100Y289200D02*
X661100D01*
X660600Y288700D02*
Y289700D01*
X646404Y293221D02*
X647403D01*
X646904Y292721D02*
Y293721D01*
X664739Y293225D02*
X665739D01*
X665239Y292725D02*
Y293725D01*
X655100Y312100D02*
X656100D01*
X655600Y311600D02*
Y312600D01*
X608712Y293082D02*
X609712D01*
X609212Y292582D02*
Y293582D01*
X669300Y312100D02*
X670300D01*
X669800Y311600D02*
Y312600D01*
X667100Y307100D02*
X668100D01*
X667600Y306600D02*
Y307600D01*
X611800Y303300D02*
X612800D01*
X612300Y302800D02*
Y303800D01*
X632404Y312100D02*
X633404D01*
X632904Y311600D02*
Y312600D01*
X611700Y313500D02*
X612700D01*
X612200Y313000D02*
Y314000D01*
X683200Y318067D02*
X684200D01*
X683700Y317567D02*
Y318567D01*
X694068Y333631D02*
X695069D01*
X694568Y333132D02*
Y334132D01*
X678700Y344300D02*
X679700D01*
X679200Y343800D02*
Y344800D01*
X706100Y326300D02*
X707100D01*
X706600Y325800D02*
Y326800D01*
X763463Y325300D02*
X764463D01*
X763963Y324800D02*
Y325800D01*
X655081Y319561D02*
X656080D01*
X655581Y319061D02*
Y320061D01*
X618891Y319519D02*
X619891D01*
X619391Y319019D02*
Y320019D01*
X614000Y323800D02*
X615000D01*
X614500Y323300D02*
Y324300D01*
X674800Y320000D02*
X675800D01*
X675300Y319500D02*
Y320500D01*
X683000Y302712D02*
X684000D01*
X683500Y302212D02*
Y303212D01*
X670700Y338600D02*
X671700D01*
X671200Y338100D02*
Y339100D01*
X664500Y316200D02*
X665500D01*
X665000Y315700D02*
Y316700D01*
X608900Y344400D02*
X609900D01*
X609400Y343900D02*
Y344900D01*
X763500Y310600D02*
X764500D01*
X764000Y310100D02*
Y311100D01*
X779800Y311000D02*
X780800D01*
X780300Y310500D02*
Y311500D01*
X729800Y309300D02*
X730800D01*
X730300Y308800D02*
Y309800D01*
X720659Y310428D02*
X721659D01*
X721159Y309928D02*
Y310928D01*
X763450Y293221D02*
X764450D01*
X763950Y292721D02*
Y293721D01*
M02*
