G04*
G04 #@! TF.GenerationSoftware,Altium Limited,Altium Designer,20.1.8 (145)*
G04*
G04 Layer_Color=8388736*
%FSLAX25Y25*%
%MOIN*%
G70*
G04*
G04 #@! TF.SameCoordinates,ADFB47FA-FD8B-4379-A6DC-C8A90555AE01*
G04*
G04*
G04 #@! TF.FilePolarity,Positive*
G04*
G01*
G75*
%ADD13C,0.01181*%
%ADD14C,0.00787*%
%ADD53C,0.01968*%
%ADD54C,0.01575*%
G36*
X788113Y334781D02*
X787287D01*
Y338088D01*
X788113D01*
Y334781D01*
D02*
G37*
G36*
Y328029D02*
X790456D01*
Y327202D01*
X788113D01*
Y325962D01*
X787287D01*
Y327202D01*
X784944D01*
Y328029D01*
X787287D01*
Y329269D01*
X788113D01*
Y328029D01*
D02*
G37*
G36*
X793212Y325135D02*
X790456D01*
Y326789D01*
X793212D01*
Y325135D01*
D02*
G37*
G36*
X700354Y293470D02*
X696023D01*
Y294257D01*
X700354D01*
Y293470D01*
D02*
G37*
G36*
X706792Y294135D02*
X708577D01*
Y293347D01*
X706792D01*
Y291711D01*
X706005D01*
Y293347D01*
X704246D01*
Y294135D01*
X706005D01*
Y296042D01*
X706792D01*
Y294135D01*
D02*
G37*
G36*
X806737Y332735D02*
Y332341D01*
X783115D01*
Y326789D01*
X784944D01*
Y325135D01*
X783115D01*
Y287459D01*
X806343D01*
Y287065D01*
X805950Y286672D01*
X782721D01*
X782328Y287065D01*
Y325135D01*
X782188D01*
Y326789D01*
X782328D01*
Y332735D01*
X782721Y333128D01*
X806343D01*
X806737Y332735D01*
D02*
G37*
D13*
X715423Y302712D02*
G03*
X715423Y302712I-591J0D01*
G01*
D14*
X648725Y310215D02*
G03*
X648725Y310215I-394J0D01*
G01*
D53*
X676102Y327973D02*
G03*
X676102Y327973I-984J0D01*
G01*
D54*
X620097Y336759D02*
G03*
X620097Y336759I-787J0D01*
G01*
X647690Y336800D02*
G03*
X647690Y336800I-787J0D01*
G01*
X764737Y289800D02*
G03*
X764737Y289800I-787J0D01*
G01*
X804413Y289604D02*
G03*
X804413Y289604I-787J0D01*
G01*
M02*
