G04*
G04 #@! TF.GenerationSoftware,Altium Limited,Altium Designer,20.1.8 (145)*
G04*
G04 Layer_Color=255*
%FSLAX25Y25*%
%MOIN*%
G70*
G04*
G04 #@! TF.SameCoordinates,ADFB47FA-FD8B-4379-A6DC-C8A90555AE01*
G04*
G04*
G04 #@! TF.FilePolarity,Positive*
G04*
G01*
G75*
%ADD17R,0.04459X0.05421*%
%ADD18R,0.05315X0.05551*%
%ADD39C,0.07874*%
%ADD40R,0.07874X0.07874*%
%ADD41C,0.07087*%
%ADD42C,0.05906*%
%ADD43R,0.05906X0.05906*%
%ADD44C,0.06000*%
%ADD45R,0.06000X0.06000*%
%ADD47R,0.02756X0.04921*%
%ADD48R,0.09354X0.07480*%
%ADD49R,0.05421X0.04459*%
D17*
X694137Y333200D02*
D03*
X686263D02*
D03*
X771737Y304800D02*
D03*
X763863D02*
D03*
X771837Y325300D02*
D03*
X763963D02*
D03*
D18*
X721159Y302554D02*
D03*
Y310428D02*
D03*
X700500Y315663D02*
D03*
Y323537D02*
D03*
D39*
X818100Y322500D02*
D03*
Y312500D02*
D03*
X587800Y333475D02*
D03*
Y323475D02*
D03*
Y313475D02*
D03*
Y303475D02*
D03*
D40*
X818100Y302500D02*
D03*
X587800Y293475D02*
D03*
D41*
X735200Y322106D02*
D03*
Y302894D02*
D03*
D42*
X715000Y342900D02*
D03*
X705000D02*
D03*
X695000D02*
D03*
D43*
X685000D02*
D03*
D44*
X802800Y324900D02*
D03*
Y314900D02*
D03*
Y304900D02*
D03*
D45*
Y294900D02*
D03*
D47*
X647740Y312026D02*
D03*
X640260D02*
D03*
X644000Y319900D02*
D03*
D48*
X787700Y324550D02*
D03*
Y339500D02*
D03*
D49*
X633100Y319974D02*
D03*
Y312100D02*
D03*
X675512D02*
D03*
Y319974D02*
D03*
X721106Y326402D02*
D03*
Y318528D02*
D03*
X619411Y319933D02*
D03*
Y312059D02*
D03*
X655600Y312100D02*
D03*
Y319974D02*
D03*
M02*
