G04*
G04 #@! TF.GenerationSoftware,Altium Limited,Altium Designer,20.1.8 (145)*
G04*
G04 Layer_Color=2752767*
%FSLAX25Y25*%
%MOIN*%
G70*
G04*
G04 #@! TF.SameCoordinates,46744D66-5E37-4BAB-B845-EE8C1FCB1BFC*
G04*
G04*
G04 #@! TF.FilePolarity,Positive*
G04*
G01*
G75*
%ADD10C,0.00200*%
%ADD11C,0.00267*%
D10*
X817300Y321700D02*
Y323300D01*
X818900D01*
Y321700D01*
X817300D01*
Y311700D02*
Y313300D01*
X818900D01*
Y311700D01*
X817300D01*
Y301700D02*
Y303300D01*
X818900D01*
Y301700D01*
X817300D01*
X587000Y332675D02*
Y334275D01*
X588600D01*
Y332675D01*
X587000D01*
Y322675D02*
Y324275D01*
X588600D01*
Y322675D01*
X587000D01*
Y312675D02*
Y314275D01*
X588600D01*
Y312675D01*
X587000D01*
Y302675D02*
Y304275D01*
X588600D01*
Y302675D01*
X587000D01*
Y292675D02*
Y294275D01*
X588600D01*
Y292675D01*
X587000D01*
X715000Y342100D02*
X714200Y343700D01*
X715800D01*
X715000Y342100D01*
X705000D02*
X704200Y343700D01*
X705800D01*
X705000Y342100D01*
X695000D02*
X694200Y343700D01*
X695800D01*
X695000Y342100D01*
X685000D02*
X684200Y343700D01*
X685800D01*
X685000Y342100D01*
X802800Y324100D02*
X803200Y324500D01*
X803600D01*
X803200Y324900D01*
X803600Y325300D01*
X803200D01*
X802800Y325700D01*
X802400Y325300D01*
X802000D01*
X802400Y324900D01*
X802000Y324500D01*
X802400D01*
X802800Y324100D01*
Y314100D02*
X803200Y314500D01*
X803600D01*
X803200Y314900D01*
X803600Y315300D01*
X803200D01*
X802800Y315700D01*
X802400Y315300D01*
X802000D01*
X802400Y314900D01*
X802000Y314500D01*
X802400D01*
X802800Y314100D01*
Y304100D02*
X803200Y304500D01*
X803600D01*
X803200Y304900D01*
X803600Y305300D01*
X803200D01*
X802800Y305700D01*
X802400Y305300D01*
X802000D01*
X802400Y304900D01*
X802000Y304500D01*
X802400D01*
X802800Y304100D01*
Y294100D02*
X803200Y294500D01*
X803600D01*
X803200Y294900D01*
X803600Y295300D01*
X803200D01*
X802800Y295700D01*
X802400Y295300D01*
X802000D01*
X802400Y294900D01*
X802000Y294500D01*
X802400D01*
X802800Y294100D01*
X636104Y332776D02*
X636504Y333576D01*
X636104Y334376D01*
X636904Y333976D01*
X637704Y334376D01*
X637304Y333576D01*
X637704Y332776D01*
X636904Y333176D01*
X636104Y332776D01*
X639460Y311226D02*
X639860Y312026D01*
X639460Y312826D01*
X640260Y312426D01*
X641060Y312826D01*
X640660Y312026D01*
X641060Y311226D01*
X640260Y311626D01*
X639460Y311226D01*
X703800Y335700D02*
X704200Y336500D01*
X703800Y337300D01*
X704600Y336900D01*
X705400Y337300D01*
X705000Y336500D01*
X705400Y335700D01*
X704600Y336100D01*
X703800Y335700D01*
X618800Y306400D02*
X619200Y307200D01*
X618800Y308000D01*
X619600Y307600D01*
X620400Y308000D01*
X620000Y307200D01*
X620400Y306400D01*
X619600Y306800D01*
X618800Y306400D01*
X632089Y302512D02*
X632488Y303311D01*
X632089Y304112D01*
X632889Y303712D01*
X633688Y304112D01*
X633288Y303311D01*
X633688Y302512D01*
X632889Y302911D01*
X632089Y302512D01*
X613700Y306500D02*
X614100Y307300D01*
X613700Y308100D01*
X614500Y307700D01*
X615300Y308100D01*
X614900Y307300D01*
X615300Y306500D01*
X614500Y306900D01*
X613700Y306500D01*
X641600Y300200D02*
X642000Y301000D01*
X641600Y301800D01*
X642400Y301400D01*
X643200Y301800D01*
X642800Y301000D01*
X643200Y300200D01*
X642400Y300600D01*
X641600Y300200D01*
X664200D02*
X664600Y301000D01*
X664200Y301800D01*
X665000Y301400D01*
X665800Y301800D01*
X665400Y301000D01*
X665800Y300200D01*
X665000Y300600D01*
X664200Y300200D01*
X659800Y286000D02*
X660200Y286800D01*
X659800Y287600D01*
X660600Y287200D01*
X661400Y287600D01*
X661000Y286800D01*
X661400Y286000D01*
X660600Y286400D01*
X659800Y286000D01*
Y288400D02*
X660200Y289200D01*
X659800Y290000D01*
X660600Y289600D01*
X661400Y290000D01*
X661000Y289200D01*
X661400Y288400D01*
X660600Y288800D01*
X659800Y288400D01*
X646103Y292421D02*
X646503Y293221D01*
X646103Y294021D01*
X646904Y293621D01*
X647704Y294021D01*
X647303Y293221D01*
X647704Y292421D01*
X646904Y292821D01*
X646103Y292421D01*
X664439Y292425D02*
X664839Y293225D01*
X664439Y294025D01*
X665239Y293625D01*
X666039Y294025D01*
X665639Y293225D01*
X666039Y292425D01*
X665239Y292825D01*
X664439Y292425D01*
X654800Y311300D02*
X655200Y312100D01*
X654800Y312900D01*
X655600Y312500D01*
X656400Y312900D01*
X656000Y312100D01*
X656400Y311300D01*
X655600Y311700D01*
X654800Y311300D01*
X608412Y292282D02*
X608812Y293082D01*
X608412Y293882D01*
X609212Y293482D01*
X610012Y293882D01*
X609612Y293082D01*
X610012Y292282D01*
X609212Y292682D01*
X608412Y292282D01*
X669000Y311300D02*
X669400Y312100D01*
X669000Y312900D01*
X669800Y312500D01*
X670600Y312900D01*
X670200Y312100D01*
X670600Y311300D01*
X669800Y311700D01*
X669000Y311300D01*
X666800Y306300D02*
X667200Y307100D01*
X666800Y307900D01*
X667600Y307500D01*
X668400Y307900D01*
X668000Y307100D01*
X668400Y306300D01*
X667600Y306700D01*
X666800Y306300D01*
X611500Y302500D02*
X611900Y303300D01*
X611500Y304100D01*
X612300Y303700D01*
X613100Y304100D01*
X612700Y303300D01*
X613100Y302500D01*
X612300Y302900D01*
X611500Y302500D01*
X632104Y311300D02*
X632504Y312100D01*
X632104Y312900D01*
X632904Y312500D01*
X633704Y312900D01*
X633304Y312100D01*
X633704Y311300D01*
X632904Y311700D01*
X632104Y311300D01*
X611400Y312700D02*
X611800Y313500D01*
X611400Y314300D01*
X612200Y313900D01*
X613000Y314300D01*
X612600Y313500D01*
X613000Y312700D01*
X612200Y313100D01*
X611400Y312700D01*
X682900Y317267D02*
X683300Y318067D01*
X682900Y318867D01*
X683700Y318467D01*
X684500Y318867D01*
X684100Y318067D01*
X684500Y317267D01*
X683700Y317667D01*
X682900Y317267D01*
X693769Y332832D02*
X694169Y333631D01*
X693769Y334432D01*
X694568Y334032D01*
X695368Y334432D01*
X694969Y333631D01*
X695368Y332832D01*
X694568Y333231D01*
X693769Y332832D01*
X678400Y343500D02*
X678800Y344300D01*
X678400Y345100D01*
X679200Y344700D01*
X680000Y345100D01*
X679600Y344300D01*
X680000Y343500D01*
X679200Y343900D01*
X678400Y343500D01*
X705800Y325500D02*
X706200Y326300D01*
X705800Y327100D01*
X706600Y326700D01*
X707400Y327100D01*
X707000Y326300D01*
X707400Y325500D01*
X706600Y325900D01*
X705800Y325500D01*
X763163Y324500D02*
X763563Y325300D01*
X763163Y326100D01*
X763963Y325700D01*
X764763Y326100D01*
X764363Y325300D01*
X764763Y324500D01*
X763963Y324900D01*
X763163Y324500D01*
X654780Y318761D02*
X655181Y319561D01*
X654780Y320361D01*
X655581Y319961D01*
X656381Y320361D01*
X655980Y319561D01*
X656381Y318761D01*
X655581Y319161D01*
X654780Y318761D01*
X618591Y318719D02*
X618991Y319519D01*
X618591Y320319D01*
X619391Y319919D01*
X620191Y320319D01*
X619791Y319519D01*
X620191Y318719D01*
X619391Y319119D01*
X618591Y318719D01*
X613700Y323000D02*
X614100Y323800D01*
X613700Y324600D01*
X614500Y324200D01*
X615300Y324600D01*
X614900Y323800D01*
X615300Y323000D01*
X614500Y323400D01*
X613700Y323000D01*
X674500Y319200D02*
X674900Y320000D01*
X674500Y320800D01*
X675300Y320400D01*
X676100Y320800D01*
X675700Y320000D01*
X676100Y319200D01*
X675300Y319600D01*
X674500Y319200D01*
X682700Y301912D02*
X683100Y302712D01*
X682700Y303512D01*
X683500Y303112D01*
X684300Y303512D01*
X683900Y302712D01*
X684300Y301912D01*
X683500Y302312D01*
X682700Y301912D01*
X670400Y337800D02*
X670800Y338600D01*
X670400Y339400D01*
X671200Y339000D01*
X672000Y339400D01*
X671600Y338600D01*
X672000Y337800D01*
X671200Y338200D01*
X670400Y337800D01*
X664200Y315400D02*
X664600Y316200D01*
X664200Y317000D01*
X665000Y316600D01*
X665800Y317000D01*
X665400Y316200D01*
X665800Y315400D01*
X665000Y315800D01*
X664200Y315400D01*
X608600Y343600D02*
X609000Y344400D01*
X608600Y345200D01*
X609400Y344800D01*
X610200Y345200D01*
X609800Y344400D01*
X610200Y343600D01*
X609400Y344000D01*
X608600Y343600D01*
X763200Y309800D02*
X763600Y310600D01*
X763200Y311400D01*
X764000Y311000D01*
X764800Y311400D01*
X764400Y310600D01*
X764800Y309800D01*
X764000Y310200D01*
X763200Y309800D01*
X779500Y310200D02*
X779900Y311000D01*
X779500Y311800D01*
X780300Y311400D01*
X781100Y311800D01*
X780700Y311000D01*
X781100Y310200D01*
X780300Y310600D01*
X779500Y310200D01*
X729500Y308500D02*
X729900Y309300D01*
X729500Y310100D01*
X730300Y309700D01*
X731100Y310100D01*
X730700Y309300D01*
X731100Y308500D01*
X730300Y308900D01*
X729500Y308500D01*
X720359Y309628D02*
X720759Y310428D01*
X720359Y311228D01*
X721159Y310828D01*
X721959Y311228D01*
X721559Y310428D01*
X721959Y309628D01*
X721159Y310028D01*
X720359Y309628D01*
X763150Y292421D02*
X763550Y293221D01*
X763150Y294021D01*
X763950Y293621D01*
X764750Y294021D01*
X764350Y293221D01*
X764750Y292421D01*
X763950Y292821D01*
X763150Y292421D01*
D11*
X736000Y322106D02*
G03*
X736000Y322106I-800J0D01*
G01*
Y302894D02*
G03*
X736000Y302894I-800J0D01*
G01*
M02*
