G04*
G04 #@! TF.GenerationSoftware,Altium Limited,Altium Designer,20.1.8 (145)*
G04*
G04 Layer_Color=32896*
%FSLAX25Y25*%
%MOIN*%
G70*
G04*
G04 #@! TF.SameCoordinates,ADFB47FA-FD8B-4379-A6DC-C8A90555AE01*
G04*
G04*
G04 #@! TF.FilePolarity,Positive*
G04*
G01*
G75*
%ADD11C,0.01000*%
%ADD12C,0.00600*%
G36*
X781588Y325135D02*
X782423D01*
Y323335D01*
X781588D01*
Y325135D01*
D01*
D02*
G37*
G36*
X793812D02*
X792977D01*
Y323335D01*
X793812D01*
Y325135D01*
D01*
D02*
G37*
D11*
X649400Y321000D02*
Y323000D01*
X649900Y323499D01*
X650900D01*
X651399Y323000D01*
Y321000D01*
X650900Y320500D01*
X649900D01*
X650400Y321500D02*
X649400Y320500D01*
X649900D02*
X649400Y321000D01*
X648400Y320500D02*
X647401D01*
X647900D01*
Y323499D01*
X648400Y323000D01*
X789000Y318900D02*
X789500Y319399D01*
X790499D01*
X790999Y318900D01*
Y316900D01*
X790499Y316401D01*
X789500D01*
X789000Y316900D01*
X786001Y319399D02*
X787001Y318900D01*
X788000Y317900D01*
Y316900D01*
X787500Y316401D01*
X786501D01*
X786001Y316900D01*
Y317400D01*
X786501Y317900D01*
X788000D01*
X676999Y324112D02*
Y327111D01*
X675500D01*
X675000Y326611D01*
Y325611D01*
X675500Y325111D01*
X676999D01*
X676000D02*
X675000Y324112D01*
X674000D02*
X673001D01*
X673500D01*
Y327111D01*
X674000Y326611D01*
X681962Y332300D02*
Y335299D01*
X680463D01*
X679963Y334800D01*
Y333800D01*
X680463Y333300D01*
X681962D01*
X680963D02*
X679963Y332300D01*
X678963Y334800D02*
X678463Y335299D01*
X677464D01*
X676964Y334800D01*
Y334300D01*
X677464Y333800D01*
X677963D01*
X677464D01*
X676964Y333300D01*
Y332800D01*
X677464Y332300D01*
X678463D01*
X678963Y332800D01*
X723358Y330529D02*
Y333528D01*
X721859D01*
X721359Y333028D01*
Y332028D01*
X721859Y331528D01*
X723358D01*
X722359D02*
X721359Y330529D01*
X718360D02*
X720359D01*
X718360Y332528D01*
Y333028D01*
X718860Y333528D01*
X719860D01*
X720359Y333028D01*
X636653Y324301D02*
Y327300D01*
X635153D01*
X634653Y326800D01*
Y325800D01*
X635153Y325300D01*
X636653D01*
X635653D02*
X634653Y324301D01*
X633653D02*
X632654D01*
X633154D01*
Y327300D01*
X633653Y326800D01*
X631154Y324800D02*
X630654Y324301D01*
X629655D01*
X629155Y324800D01*
Y326800D01*
X629655Y327300D01*
X630654D01*
X631154Y326800D01*
Y326300D01*
X630654Y325800D01*
X629155D01*
X659849Y324800D02*
Y327800D01*
X658349D01*
X657849Y327300D01*
Y326300D01*
X658349Y325800D01*
X659849D01*
X658849D02*
X657849Y324800D01*
X656850D02*
X655850D01*
X656350D01*
Y327800D01*
X656850Y327300D01*
X654351D02*
X653851Y327800D01*
X652851D01*
X652351Y327300D01*
Y326800D01*
X652851Y326300D01*
X653351D01*
X652851D01*
X652351Y325800D01*
Y325300D01*
X652851Y324800D01*
X653851D01*
X654351Y325300D01*
X780699Y323800D02*
Y326800D01*
X779200D01*
X778700Y326300D01*
Y325300D01*
X779200Y324800D01*
X780699D01*
X779700D02*
X778700Y323800D01*
X777700Y324300D02*
X777200Y323800D01*
X776201D01*
X775701Y324300D01*
Y326300D01*
X776201Y326800D01*
X777200D01*
X777700Y326300D01*
Y325800D01*
X777200Y325300D01*
X775701D01*
X621810Y323852D02*
Y326852D01*
X620310D01*
X619810Y326352D01*
Y325352D01*
X620310Y324852D01*
X621810D01*
X620810D02*
X619810Y323852D01*
X618811Y326352D02*
X618311Y326852D01*
X617311D01*
X616811Y326352D01*
Y325852D01*
X617311Y325352D01*
X616811Y324852D01*
Y324352D01*
X617311Y323852D01*
X618311D01*
X618811Y324352D01*
Y324852D01*
X618311Y325352D01*
X618811Y325852D01*
Y326352D01*
X618311Y325352D02*
X617311D01*
X780799Y303400D02*
Y306399D01*
X779300D01*
X778800Y305900D01*
Y304900D01*
X779300Y304400D01*
X780799D01*
X779800D02*
X778800Y303400D01*
X777800Y306399D02*
X775801D01*
Y305900D01*
X777800Y303900D01*
Y303400D01*
X701300Y310363D02*
X701800Y310862D01*
X702799D01*
X703299Y310363D01*
Y308363D01*
X702799Y307863D01*
X701800D01*
X701300Y308363D01*
X700300Y310363D02*
X699800Y310862D01*
X698801D01*
X698301Y310363D01*
Y309863D01*
X698801Y309363D01*
X699300D01*
X698801D01*
X698301Y308863D01*
Y308363D01*
X698801Y307863D01*
X699800D01*
X700300Y308363D01*
X721459Y296928D02*
X721959Y297428D01*
X722959D01*
X723459Y296928D01*
Y294929D01*
X722959Y294429D01*
X721959D01*
X721459Y294929D01*
X720460Y294429D02*
X719460D01*
X719960D01*
Y297428D01*
X720460Y296928D01*
D12*
X724117Y298761D02*
G03*
X724717Y299361I0J600D01*
G01*
X717602D02*
G03*
X718202Y298761I600J0D01*
G01*
X724717Y313622D02*
G03*
X724117Y314222I-600J0D01*
G01*
X718202D02*
G03*
X717602Y313622I0J-600D01*
G01*
X703457Y311869D02*
G03*
X704058Y312469I0J600D01*
G01*
X696943D02*
G03*
X697542Y311869I600J0D01*
G01*
X704058Y326731D02*
G03*
X703457Y327331I-600J0D01*
G01*
X697542D02*
G03*
X696943Y326731I0J-600D01*
G01*
X637991Y313104D02*
Y318822D01*
X642053D01*
X650009Y313104D02*
Y318822D01*
X645947D02*
X650009D01*
X642207Y313104D02*
X645793D01*
X781888Y329525D02*
X793512D01*
X781888Y324835D02*
Y339215D01*
X793512Y324835D02*
Y339215D01*
X781888D02*
X782223D01*
X793177D02*
X793512D01*
X692075Y336811D02*
X697134D01*
Y329589D02*
Y336811D01*
X692075Y329589D02*
X697134D01*
X683266Y336811D02*
X688325D01*
X683266Y329589D02*
Y336811D01*
Y329589D02*
X688325D01*
X629489Y317912D02*
Y322971D01*
X636711D01*
Y317912D02*
Y322971D01*
X629489Y309103D02*
Y314162D01*
Y309103D02*
X636711D01*
Y314162D01*
X679122Y309103D02*
Y314162D01*
X671901Y309103D02*
X679122D01*
X671901D02*
Y314162D01*
X679122Y317912D02*
Y322971D01*
X671901D02*
X679122D01*
X671901Y317912D02*
Y322971D01*
X717495Y324340D02*
Y329399D01*
X724717D01*
Y324340D02*
Y329399D01*
X717495Y315532D02*
Y320590D01*
Y315532D02*
X724717D01*
Y320590D01*
X717602Y299361D02*
Y304912D01*
X724717Y299361D02*
Y304912D01*
X718202Y298761D02*
X724117D01*
X717602Y308071D02*
Y313622D01*
X724717Y308071D02*
Y313622D01*
X718202Y314222D02*
X724117D01*
X696943Y312469D02*
Y318021D01*
X704058Y312469D02*
Y318021D01*
X697542Y311869D02*
X703457D01*
X696943Y321180D02*
Y326731D01*
X704058Y321180D02*
Y326731D01*
X697542Y327331D02*
X703457D01*
X615800Y317871D02*
Y322929D01*
X623021D01*
Y317871D02*
Y322929D01*
X615800Y309062D02*
Y314121D01*
Y309062D02*
X623021D01*
Y314121D01*
X769675Y308411D02*
X774734D01*
Y301189D02*
Y308411D01*
X769675Y301189D02*
X774734D01*
X760866Y308411D02*
X765925D01*
X760866Y301189D02*
Y308411D01*
Y301189D02*
X765925D01*
X769775Y328911D02*
X774834D01*
Y321689D02*
Y328911D01*
X769775Y321689D02*
X774834D01*
X760966Y328911D02*
X766025D01*
X760966Y321689D02*
Y328911D01*
Y321689D02*
X766025D01*
X659211Y309103D02*
Y314162D01*
X651989Y309103D02*
X659211D01*
X651989D02*
Y314162D01*
X659211Y317912D02*
Y322971D01*
X651989D02*
X659211D01*
X651989Y317912D02*
Y322971D01*
M02*
